<?xml version="1.0" encoding="UTF-8" standalone="no"?>
<svg xmlns:rdf="http://www.w3.org/1999/02/22-rdf-syntax-ns#" xmlns="http://www.w3.org/2000/svg" height="939.27" viewBox="0 0 1200.7801 939.26679" width="1200.8" version="1.1" xmlns:cc="http://creativecommons.org/ns#" xmlns:dc="http://purl.org/dc/elements/1.1/">
<g transform="translate(0 -31.018)">
<path d="m36 526.29h28v-436.5h712v-28h-740v464.5z" stroke="#000" stroke-width="6" fill="none"/>
<path d="m65.81 548.92c4.1698 1.145 8.0603 4.8911 8.9924 8.6585 0.18734 0.7575 0.15702 0.7528 1.9154 0.2948 10.593-2.7592 19.491 8.4672 14.552 18.361l-0.57473 1.1511 1.2767 1.3384c7.3938 7.7517 1.7531 21.441-8.8438 21.464h-1.332l0.59504 1.709c4.1736 11.989-9.7755 22.187-19.884 14.536-1.2899-0.9762-1.5415-1.0891-1.6537-0.7418-4.5833 14.18-25.146 11.336-25.161-3.4803-0.01001-5.9273 2.1701-9.0914 4.3866-6.3784 13.161 16.11 38.206 7.1412 41.111-14.721 4.6319-34.87-37.376-42.87-53.85-10.255-14.973 29.642 0.71634 76.489 31.028 92.645 1.739 0.9268 1.7336 1.0059-0.15382 2.2703-9.6219 6.4464-22.957-3.127-19.505-14.003l0.16472-0.5189-1.0241 0.439c-11.365 4.8716-22.628-8.6215-15.747-18.866 0.77768-1.1579 0.78299-1.1466-0.82242-1.7292-8.2522-2.9945-10.744-13.908-4.7001-20.586l1.2331-1.3626-1.8027-0.8083c-9.6374-4.3215-9.6465-18.518-0.01501-23.142l1.5918-0.7641-0.69582-0.7925c-7.2316-8.2364-1.2433-21.105 9.8385-21.142l2.6209-0.01-0.34776-0.943c-4.0819-11.07 9.6278-21.26 19.519-14.508 0.7951 0.5427 1.4707 0.9525 1.5014 0.9108 0.03102-0.042 0.30293-0.6973 0.60475-1.4567 2.3047-5.7991 9.1699-9.2233 15.182-7.5725zm-33.98 66.222c3.8476 1.373 5.0421 6.3557 2.2272 9.2903-3.3529 3.4956-9.1852 1.5628-9.7531-3.2319-0.49017-4.1393 3.6236-7.4511 7.5259-6.0584zm4.7734 13.77c3.2874 1.5622 3.5474 5.7702 0.46445 7.5163-2.781 1.5751-6.2542-0.4647-6.2351-3.662 0.01801-2.9552 3.1957-5.078 5.7706-3.8543zm4.2643 10.857c4.0003 2.4394 1.0328 8.4464-3.1389 6.3538-1.5332-0.7691-2.0684-1.583-2.0684-3.1455 0-2.7434 2.9694-4.5729 5.2073-3.2083zm4.4583 7.9759c3.1733 0.8095 2.8314 5.5283-0.42722 5.8956-3.8612 0.4352-4.5881-5.2713-0.75156-5.9 0.38899-0.064 0.91939-0.062 1.1788 0zm6.0006 9.2121c1.4462 1.4462 0.62797 3.5835-1.3719 3.5835-2.6498 0-2.8341-3.7356-0.20525-4.1622 0.73935-0.12 0.95892-0.039 1.5772 0.5787zm19.224 6.1671c1.7417 0.7252 2.3738 2.5329 2.1 6.0066-0.92559 11.747 0.91909 19.904 6.3069 27.889l1.2291 1.8216-0.97543-0.7726c-8.2827-6.56-15.518-17.352-16.291-24.299-0.72534-6.52 3.4723-12.376 7.63-10.645zm-14.485 0.2086c0.61956 0.5017 0.73145 1.7547 0.20285 2.272-1.0151 0.9935-2.8093 0.3078-2.8093-1.0737 0-1.3965 1.5064-2.0891 2.6065-1.1983zm39.356 2.8071c1.8733 0.9358 1.9601 2.8475 0.22427 4.9393-0.51609 0.622-1.4654 1.7597-2.1095 2.5284-4.4091 5.2617-5.6461 14.903-3.0868 24.06 0.61596 2.2036 0.50618 2.1625-0.75176-0.2811-6.5718-12.766-7.5186-23.348-2.5644-28.66 2.4393-2.6155 6.0034-3.7277 8.2882-2.5863zm-34.764 3.2281c0.75897 0.759 0.28461 2.0169-0.76067 2.0169-0.42032 0-1.2515-0.8612-1.2515-1.2967 0-1.0872 1.2115-1.5209 2.0122-0.7202zm53.531 12.398c2.2704 1.1238 1.9743 2.7864-1.0137 5.6899-7.1894 6.9861-11.313 21.742-8.6512 30.961 0.73395 2.5423-3.6199-6.5463-4.8434-10.111-5.3679-15.637 3.556-31.962 14.508-26.54zm-74.756-0.3238c8.7436 1.0486 18.713 5.4911 26.58 11.845 2.1474 1.7341 2.266 1.9196 0.59965 0.937-12.852-7.5775-25.837-9.0851-31.7-3.6801-2.823 2.602-2.7082 5.5761 0.28822 7.4698 3.3062 2.0895 4.9707 5.493 4.778 9.7696-0.54901 12.178-20.132 11.551-25.008-0.8002-5.4482-13.8 7.7198-27.549 24.462-25.541zm36.187 25.406c6.645 1.3976 13.79 6.1285 20.121 13.323 3.059 3.476 6.8193 8.4366 5.7977 7.6486-9.7794-7.5438-13.462-8.9393-24.505-9.2859-7.6947-0.2413-9.3896-0.7435-11.098-3.2875-3.281-4.8854 2.5095-9.9069 9.6839-8.3979zm4.2435 21.017c7.112 1.2015 11.892 5.2786 13.657 11.65 0.48566 1.7523 0.6716 5.537 0.33405 6.7976-0.17053 0.6368-0.11779 0.6466-3.0067-0.5558-25.086-10.44-58.171 3.666-66.839 28.498-15.325 43.898 31.396 79.287 66.279 50.204 14.652-12.216 9.2787-43.446-8.5381-49.625-16.936-5.8731-31.664 2.6583-32.226 18.668-0.59635 16.968 21.636 22.32 30.389 7.3156l0.75206-1.2892 0.46345 1.0534c3.9376 8.9493-1.0216 19.298-10.458 21.824-8.265 2.2128-17.345-3.2814-19.232-11.637-0.37748-1.6714-0.3954-1.6982-1.2428-1.852-13.448-2.4409-17.527-20.048-6.528-28.182l0.9327-0.6899-0.06105-2.9961c-0.33655-16.452 18.747-24.74 30.44-13.219l2.0688 2.0383 1.5805-0.7953c12.706-6.393 26.764 6.793 21.424 20.096l-0.77128 1.9215 1.5478 0.382c15.247 3.7625 15.999 25.562 1.0423 30.225-1.0826 0.3375-1.9683 0.6446-1.9683 0.6826s0.31584 0.7368 0.70203 1.5532c7.3519 15.546-12.847 29.734-25.22 17.715-2.3893-2.3209-2.3287-2.31-3.1307-0.5628-6.164 13.429-26.3 11.317-29.577-3.1021-0.37978-1.6711-0.46985-1.8294-1.3093-2.3012l-0.90138-0.5066-1.1058 0.4716c-14.801 6.3124-28.552-10.487-19.267-23.537l0.76077-1.0693-1.3298-0.646c-10.49-5.0957-11.418-20.901-1.589-27.066 0.6732-0.4223 1.2636-0.7961 1.3121-0.8307 0.04804-0.035-0.33635-0.5449-0.85494-1.1341-8.8404-10.043-0.72404-26.374 12.814-25.782 1.6659 0.073 2.2024 0.026 2.1216-0.1844-1.6379-4.2685-0.25579-10.828 3.1392-14.898 6.7818-8.1307 20.682-6.805 25.646 2.446l0.70022 1.305 0.71844-1.9946c2.3834-6.617 9.9971-11.46 16.333-10.39zm31.207 24.734c11.42 2.3646 15.126 11.166 12.024 28.56-0.12339 0.6917-0.0721 0.7598 0.77338 1.0288 13.214 4.2044 14.491 20.954 2.5147 32.979-2.3984 2.408-2.2639 2.5469-1.9605-2.0241 1.3431-20.232-6.36-41.939-20.634-58.145-1.1226-1.2746-1.974-2.3846-1.8919-2.4667 0.32234-0.3223 7.5472-0.2684 9.1739 0.068zm56.02 47.633c0 0.2102-12.375 20.798-12.698 21.126-0.21225 0.2151-5.2658 2.3203-11.23 4.6784-5.9643 2.3581-10.934 4.3431-11.045 4.4113-0.36417 0.2251 11.862-20.05 12.419-20.594 0.2632-0.2574 22.553-9.7663 22.553-9.6212zm-36.309 31.284c0 0.032-1.7421 4.7268-3.8666 10.432l-3.8628 10.373-11.162 2.5019c-6.1392 1.3761-11.206 2.4642-11.259 2.4182s1.8002-4.9005 4.1184-10.788l4.2149-10.704 10.734-2.1463c10.457-2.091 11.091-2.2105 11.084-2.0873zm33.244 0.9859c7.0904 1.4971 13.202 7.8463 13.202 13.715 0 0.4772 0.14881 0.5166 2.5343 0.6711 12.018 0.7782 20.214 3.7517 22.457 8.1474 2.1065 4.1291 2.1964 15.793 0.13771 17.852-0.037 0.037-0.91859-1.0217-1.9595-2.3523-13.44-17.18-33.731-28.582-54.877-30.836-1.4263-0.152-2.63-0.3109-2.675-0.3531-0.1293-0.1214 2.7515-2.1856 4.5006-3.2247 5.3467-3.1767 11.971-4.6143 16.681-3.6198zm-134.61 10.672c2.5706 0.9298 2.938 1.5583 2.943 5.0347 0.01001 6.4188 5.5972 8.2189 25.582 8.2403 7.3778 0.01 16.057 0.3089 20.949 0.7266 4.4958 0.3839 4.8315 0.5323 2.0195 0.8928-40.009 5.1293-68.385 36.156-51.885 56.732 16.971 21.164 52.325-0.1936 65.724-39.704l0.9279-2.7363-0.14141 2.2396c-0.24909 3.9451-1.273 11.425-2.8298 20.675-3.8824 23.066-3.2307 28.475 3.5026 29.073 8.1382 0.7225 4.0687 11.901-4.3192 11.865-10.539-0.046-17.584-8.2341-15.842-18.412 0.11659-0.6808 0.18624-1.2378 0.15492-1.2378-0.10548 0-3.3191 5.0433-4.9029 7.6942-6.5227 10.918-19.218 12.744-28.067 4.038l-1.7434-1.7154-1.1449 0.8851c-6.6913 5.1733-14.604 5.4552-20.233 0.7208-8.9681-7.5427-9.6784-16.883-1.8837-24.77l2.1595-2.1852-0.92499-1.2332c-5.2686-7.0233-5.2352-15.371 0.08707-21.824 2.4666-2.9905 4.6651-4.3706 10.409-6.535 1.9194-0.7233 4.1472-1.6085 4.9507-1.9674l1.4608-0.6524-2.1741-0.1642c-8.7202-0.6585-12.974-4.7868-14.362-13.94-1.1598-7.6459 3.8682-13.806 9.5815-11.74zm126.54 10.211c6.6199 1.7346 11.002 6.7741 11.854 13.633 0.30423 2.4479 0.0881 2.2419 1.9009 1.8147 14.222-3.3525 25.62 14.925 15.764 25.28l-0.73354 0.7707 0.90017 1.0254c11.449 13.042-2.3924 34.072-18.91 28.732l-1.4223-0.4597-1.404 1.2759c-9.5836 8.7093-26.011 1.644-26.041-11.2 0-1.198-0.0821-1.5074-0.41602-1.6203-16.735-5.66-12.655-30.585 5.0096-30.603 4.2236 0 11.362 2.6631 9.312 3.4793-1.6105 0.6413-4.2434 1.9093-4.2434 2.0437 0 0.084-0.63458 0.5997-1.4101 1.1466-9.1177 6.4299-8.5093 22.117 1.0398 26.808 17.261 8.4793 34.681-9.101 29.21-29.478-4.5358-16.893-32.734-25.865-46.52-14.801-35.129 28.191-9.3443 80.694 36.541 74.405 26.482-3.6295 47.016-34.468 40.707-61.137-0.82181-3.4737 1.8779-3.7082 7.6862-0.6676 13.231 6.9265 8.3873 29.357-6.3543 29.425-0.74696 0-0.74326 0.01 1.1865 1.9484 12.326 12.383-2.2226 33.431-17.61 25.478-0.85214-0.4404-0.86185-0.4273-1.1052 1.4957-1.7271 13.647-18.924 18.898-27.657 8.4452l-0.90728-1.0858-1.3537 1.2911c-8.4851 8.0934-22.361 4.8936-25.945-5.9829-0.31964-0.9701-0.60766-1.8058-0.63998-1.8572-0.032-0.051-0.67301 0.1824-1.4238 0.5193-14.306 6.42-28.457-10.222-19.617-23.071 1.1388-1.655 0.74416-2.9079-1.1548-3.6672-14.097-5.6361-12.678-26.545 2.0297-29.913 1.5109-0.346 1.5399-0.5751 0.27451-2.1759-11.063-13.996 7.4605-33.234 21.605-22.438 1.3108 1.0005 1.1242 1.0653 1.9884-0.6902 3.1919-6.4835 10.879-9.9997 17.862-8.17zm-61.709 8.6996c0 1.4767-9.2399 17.665-14.544 25.481l-2.3198 3.4184-14.376 3.7964c-7.907 2.088-14.409 3.7705-14.449 3.7389-0.42672-0.3393 12.079-24.198 12.905-24.619 7.2164-3.6816 32.785-12.896 32.785-11.816zm172.41 2.1395c2.1915 2.6045 0.61246 8.9595-3.1647 12.737-6.1635 6.1635-16.604 5.9841-29.879-0.5136-3.934-1.9256-3.9394-1.9374-0.72495-1.5844 11.194 1.2293 23.231-2.5462 28.438-8.9204 1.9288-2.3613 4.1798-3.0868 5.3314-1.7183zm-43.819 14.409c16.565 11.726 25.02 30.403 15.786 34.873-5.247 2.5401-7.9994-1.3435-8.3602-11.796-0.36187-10.485-1.8354-14.616-8.0596-22.592-1.4609-1.8722-1.3964-1.9215 0.63337-0.4846zm58.827 3.8116c1.5079 0.7534 1.8738 4.1683 0.70853 6.6135-3.6208 7.5979-15.228 8.0216-29.169 1.0647-2.0455-1.0206-3.4539-1.7953-3.1298-1.7213 12.545 2.8635 20.309 1.6895 26.62-4.0248 2.3695-2.1456 3.592-2.6207 4.9701-1.9321zm81.819 1.3531c2.5689 0.3985 4.7515 1.4903 6.7695 3.3864l1.244 1.169 1.3492-0.6398c10.468-4.9645 21.924 5.3038 17.827 15.98-0.0761 0.1977 0.37348 0.4818 1.2923 0.8167 11.482 4.1864 10.982 20.64-0.74115 24.402-0.36708 0.1178-0.31844 0.2699 0.4109 1.2852 7.0454 9.8065-2.576 23.64-13.904 19.991-0.64828-0.2088-1.2317-0.3809-1.2966-0.3824-0.0651 0-0.0811 1.0116-0.036 2.2514 0.39729 10.896-12.688 17.373-20.898 10.345-0.55732-0.4771-1.0457-0.8282-1.0853-0.7804-0.04 0.048-0.42982 0.8221-0.86705 1.7207-4.5543 9.3586-18.485 9.2249-22.97-0.2204l-0.89497-1.8849-1.1638 1.1148c-6.5452 6.2695-17.858 3.6582-20.868-4.8167-0.47416-1.3352-0.42142-1.3231-1.8666-0.4259-10.07 6.2526-23.023-4.1556-18.877-15.168l0.60805-1.6148-0.62767 0.1381c-11.823 2.6018-20.921-11.513-13.187-20.459l0.78999-0.914 0.76688 1.4388c16.027 30.069 62.059 45.926 91.864 31.645 35.01-16.775 24.667-61.862-12.338-53.786-20.251 4.4198-26.86 29.52-10.883 41.333 2.6095 1.9294-5.6634 4.6182-10.362 3.3676-11.953-3.1808-13.029-20.226-1.5431-24.437 0.77799-0.2853 1.4502-0.5455 1.4938-0.5782 0.044-0.033-0.34616-0.5979-0.86635-1.2559-8.3875-10.611 2.9729-24.982 15.58-19.709 0.35687 0.1492 0.41251 0.031 0.41251-0.8759 0-7.4122 7.3915-13.595 14.867-12.435zm-111.64 16.306c6.4885 4.6279 16.461 7.3316 24.202 6.5619 6.5445-0.6507 7.3587-0.5791 8.8338 0.7759 2.6116 2.399 0.24579 6.9298-4.3635 8.357-7.6499 2.3684-21.403-5.1526-30.179-16.504-0.43703-0.5652-0.37078-0.5296 1.5068 0.8096zm3.6664 12.864c15.573 19.425 15.977 42.851 0.86685 50.238-13.074 6.3906-26.821-3.5724-23.626-17.122 2.014-8.5423 13.806-9.7431 18.328-1.8663 1.9024 3.3138 5.9533 2.4639 8.5037-1.7843 3.5392-5.8953 2.3958-15.505-3.1555-26.518-1.2581-2.496-2.2663-4.5381-2.2402-4.5381 0.026 0 0.62137 0.716 1.323 1.5912zm24.115 5.4407c0.48996 0.5415 0.49677 1.0788 0.02 1.5559-1.0066 1.0067-2.6637-0.2181-1.8908-1.3976 0.45904-0.7007 1.3147-0.773 1.8711-0.1583zm5.8122 4.5196c1.3557 1.3556-0.46485 3.5259-1.9668 2.3445-1.1967-0.9413-0.62057-2.8159 0.86555-2.8159 0.34636 0 0.84193 0.2121 1.1012 0.4714zm5.8096 4.2326c1.3011 0.548 1.6624 2.3398 0.68481 3.3947-1.7862 1.9274-4.8706-0.8093-3.135-2.7816 0.58774-0.6679 1.6746-0.9399 2.4501-0.6131zm-277.13 1.1306c-2.2755 5.751-3.635 9.0373-3.7741 9.1234-0.35346 0.2183-10.222 2.5005-10.333 2.3896-0.15041-0.1506 3.8925-9.3644 4.2607-9.7102 0.24698-0.2319 9.5142-2.9225 10.066-2.9225 0.12269 0 0.02402 0.5039-0.22006 1.1197zm285.45 3.5545c2.651 1.4217 1.9047 5.2446-1.0962 5.6157-1.6395 0.2028-3.3684-1.3277-3.3684-2.9818 0-1.4566 1.6081-3.0647 3.0647-3.0647 0.32825 0 0.95822 0.1938 1.4 0.4308zm7.2955 4.5207c3.9645 0.9358 3.17 7.0698-0.91579 7.0698-3.117 0-4.7471-3.7876-2.5884-6.0147 0.65509-0.6758 2.068-1.367 2.5884-1.2663 0.0651 0.013 0.47696 0.1076 0.91579 0.2112zm10.994 3.8639c1.0002 0.4358 2.1829 1.864 2.3702 2.8622 1.0082 5.3742-6.7723 7.2358-8.1798 1.9572-0.88516-3.3195 2.6059-6.2154 5.8097-4.8194zm13.04 3.8214c5.2023 2.5925 3.455 10.702-2.3059 10.702-2.5678 0-4.3662-1.0653-5.3443-3.1659-2.2943-4.9273 2.8051-9.9508 7.6502-7.5363z"/>
<path d="m44 518.12c4.0006-0.0207 8.0299 0.82235 12 0.01v-436.34c237.28-0.02413 474.56 0.05828 711.84-0.05859-0.0188-4.0201 0.82054-7.9622 0.008-11.941h-723.84v448.33z"/>
<path d="m1164.8 475.02h-28v436.5h-712v28h740v-464.5z" stroke="#000" stroke-width="6" fill="none"/>
<path d="m1135 452.38c-4.1698-1.145-8.0603-4.8911-8.9924-8.6585-0.1874-0.7575-0.1571-0.7528-1.9155-0.2948-10.593 2.7592-19.491-8.4672-14.552-18.361l0.5747-1.1511-1.2766-1.3384c-7.3939-7.7517-1.7531-21.441 8.8438-21.464h1.332l-0.595-1.709c-4.1737-11.989 9.7755-22.187 19.884-14.536 1.2898 0.9762 1.5414 1.0891 1.6537 0.7418 4.5833-14.18 25.146-11.336 25.161 3.4803 0.01 5.9273-2.1702 9.0914-4.3866 6.3784-13.161-16.11-38.206-7.1412-41.11 14.721-4.6319 34.87 37.376 42.87 53.85 10.255 14.973-29.642-0.7163-76.489-31.028-92.645-1.739-0.9268-1.7336-1.0059 0.1538-2.2703 9.6219-6.4464 22.957 3.127 19.505 14.003l-0.1647 0.5189 1.024-0.439c11.365-4.8716 22.628 8.6215 15.747 18.866-0.7776 1.1579-0.7829 1.1466 0.8225 1.7292 8.2521 2.9945 10.744 13.908 4.7001 20.586l-1.2331 1.3626 1.8026 0.8083c9.6374 4.3215 9.6465 18.518 0.015 23.142l-1.5918 0.7641 0.6959 0.7925c7.2316 8.2364 1.2433 21.105-9.8385 21.142l-2.6209 0.01 0.3478 0.943c4.0818 11.07-9.6278 21.26-19.519 14.508-0.795-0.5427-1.4707-0.9525-1.5014-0.9108-0.031 0.042-0.3029 0.6973-0.6047 1.4567-2.3048 5.7991-9.1699 9.2233-15.182 7.5725zm33.98-66.222c-3.8476-1.373-5.0421-6.3557-2.2272-9.2903 3.3529-3.4956 9.1852-1.5628 9.7531 3.2319 0.4902 4.1393-3.6236 7.4511-7.5259 6.0584zm-4.7734-13.77c-3.2874-1.5622-3.5474-5.7702-0.4645-7.5163 2.781-1.5751 6.2542 0.4647 6.2351 3.662-0.018 2.9552-3.1957 5.078-5.7706 3.8543zm-4.2643-10.857c-4.0003-2.4394-1.0328-8.4464 3.1388-6.3538 1.5333 0.7691 2.0685 1.583 2.0685 3.1455 0 2.7434-2.9694 4.5729-5.2073 3.2083zm-4.4584-7.9759c-3.1732-0.8095-2.8314-5.5283 0.4273-5.8956 3.8612-0.4352 4.5881 5.2713 0.7515 5.9-0.389 0.064-0.9194 0.062-1.1788 0zm-6.0006-9.2121c-1.4461-1.4462-0.6279-3.5835 1.372-3.5835 2.6498 0 2.8341 3.7356 0.2052 4.1622-0.7393 0.12-0.9589 0.039-1.5772-0.5787zm-19.224-6.1671c-1.7417-0.7252-2.3737-2.5329-2.0999-6.0066 0.9256-11.747-0.9191-19.904-6.307-27.889l-1.2291-1.8216 0.9755 0.7726c8.2827 6.56 15.518 17.352 16.291 24.299 0.7253 6.52-3.4723 12.376-7.6301 10.645zm14.485-0.2086c-0.6196-0.5017-0.7315-1.7547-0.2029-2.272 1.0151-0.9935 2.8094-0.3078 2.8094 1.0737 0 1.3965-1.5065 2.0891-2.6065 1.1983zm-39.356-2.8071c-1.8733-0.9358-1.9601-2.8475-0.2243-4.9393 0.5161-0.622 1.4654-1.7597 2.1095-2.5284 4.4091-5.2617 5.6461-14.903 3.0868-24.06-0.6159-2.2036-0.5061-2.1625 0.7518 0.2811 6.5718 12.766 7.5186 23.348 2.5644 28.66-2.4393 2.6155-6.0034 3.7277-8.2882 2.5863zm34.764-3.2281c-0.759-0.759-0.2847-2.0169 0.7606-2.0169 0.4203 0 1.2516 0.8612 1.2516 1.2967 0 1.0872-1.2115 1.5209-2.0122 0.7202zm-53.531-12.398c-2.2704-1.1238-1.9742-2.7864 1.0137-5.6899 7.1894-6.9861 11.313-21.742 8.6512-30.961-0.734-2.5423 3.6199 6.5463 4.8434 10.111 5.3679 15.637-3.5559 31.962-14.508 26.54zm74.756 0.3238c-8.7436-1.0486-18.713-5.4911-26.58-11.845-2.1474-1.7341-2.266-1.9196-0.5996-0.937 12.852 7.5775 25.837 9.0851 31.7 3.6801 2.8231-2.602 2.7083-5.5761-0.2882-7.4698-3.3061-2.0895-4.9707-5.493-4.7779-9.7696 0.549-12.178 20.132-11.551 25.008 0.8002 5.4482 13.8-7.7198 27.549-24.462 25.541zm-36.187-25.406c-6.6449-1.3976-13.79-6.1285-20.121-13.323-3.059-3.476-6.8193-8.4366-5.7978-7.6486 9.7794 7.5438 13.462 8.9393 24.505 9.2859 7.6946 0.2413 9.3896 0.7435 11.098 3.2875 3.281 4.8854-2.5095 9.9069-9.6839 8.3979zm-4.2434-21.017c-7.1121-1.2015-11.892-5.2786-13.657-11.65-0.4856-1.7523-0.6716-5.537-0.334-6.7976 0.1705-0.6368 0.1178-0.6466 3.0066 0.5558 25.086 10.44 58.171-3.666 66.839-28.498 15.325-43.898-31.396-79.287-66.279-50.204-14.652 12.216-9.2787 43.446 8.5381 49.625 16.936 5.8731 31.664-2.6583 32.226-18.668 0.5963-16.968-21.636-22.32-30.389-7.3156l-0.752 1.2892-0.4635-1.0534c-3.9375-8.9493 1.0216-19.298 10.458-21.824 8.2649-2.2128 17.346 3.2814 19.232 11.637 0.3774 1.6714 0.3954 1.6982 1.2428 1.852 13.448 2.4409 17.527 20.048 6.528 28.182l-0.9327 0.6899 0.061 2.9961c0.3366 16.452-18.747 24.74-30.44 13.219l-2.0688-2.0383-1.5805 0.7953c-12.706 6.393-26.764-6.793-21.424-20.096l0.7713-1.9215-1.5477-0.382c-15.247-3.7625-15.999-25.562-1.0423-30.225 1.0826-0.3375 1.9683-0.6446 1.9683-0.6826s-0.3159-0.7368-0.7021-1.5532c-7.3519-15.546 12.847-29.734 25.22-17.715 2.3893 2.3209 2.3288 2.31 3.1308 0.5628 6.164-13.429 26.3-11.317 29.577 3.1021 0.3798 1.6711 0.4699 1.8294 1.3093 2.3012l0.9014 0.5066 1.1058-0.4716c14.801-6.3124 28.552 10.487 19.267 23.537l-0.7608 1.0693 1.3298 0.646c10.49 5.0957 11.418 20.901 1.589 27.066-0.6732 0.4223-1.2637 0.7961-1.3121 0.8307-0.048 0.035 0.3363 0.5449 0.8549 1.1341 8.8405 10.043 0.7241 26.374-12.814 25.782-1.6659-0.073-2.2024-0.026-2.1216 0.1844 1.638 4.2685 0.2558 10.828-3.1391 14.898-6.7818 8.1307-20.682 6.805-25.646-2.446l-0.7003-1.305-0.7184 1.9946c-2.3834 6.617-9.9971 11.46-16.333 10.39zm-31.207-24.734c-11.42-2.3646-15.126-11.166-12.024-28.56 0.1234-0.6917 0.072-0.7598-0.7734-1.0288-13.214-4.2044-14.491-20.954-2.5146-32.979 2.3984-2.408 2.2639-2.5469 1.9604 2.0241-1.3431 20.232 6.36 41.939 20.634 58.145 1.1227 1.2746 1.974 2.3846 1.892 2.4667-0.3224 0.3223-7.5473 0.2684-9.1739-0.068zm-56.02-47.633c0-0.2102 12.375-20.798 12.698-21.126 0.2122-0.2151 5.2658-2.3203 11.23-4.6784 5.9643-2.3581 10.934-4.3431 11.045-4.4113 0.3641-0.2251-11.862 20.05-12.419 20.594-0.2632 0.2574-22.553 9.7663-22.553 9.6212zm36.2-31.27c0-0.032 1.7421-4.7268 3.8666-10.432l3.8628-10.373 11.162-2.5019c6.1392-1.3761 11.206-2.4642 11.259-2.4182s-1.8002 4.9005-4.1184 10.788l-4.2148 10.704-10.734 2.1463c-10.457 2.091-11.091 2.2105-11.084 2.0873zm-33.244-0.9859c-7.0905-1.4971-13.202-7.8463-13.202-13.715 0-0.4772-0.1489-0.5166-2.5343-0.6711-12.018-0.7782-20.214-3.7517-22.457-8.1474-2.1065-4.1291-2.1964-15.793-0.13771-17.852 0.037-0.037 0.91859 1.0217 1.9595 2.3523 13.44 17.18 33.731 28.582 54.877 30.836 1.4263 0.152 2.63 0.3109 2.675 0.3531 0.1293 0.1214-2.7514 2.1856-4.5005 3.2247-5.3468 3.1767-11.971 4.6143-16.681 3.6198zm134.61-10.672c-2.5707-0.9298-2.938-1.5583-2.943-5.0347-0.01-6.4188-5.5972-8.2189-25.582-8.2403-7.3778-0.01-16.057-0.3089-20.95-0.7266-4.4958-0.3839-4.8315-0.5323-2.0195-0.8928 40.009-5.1293 68.385-36.156 51.886-56.732-16.971-21.164-52.325 0.1936-65.724 39.704l-0.9279 2.7363 0.1414-2.2396c0.2491-3.9451 1.273-11.425 2.8298-20.675 3.8825-23.066 3.2308-28.475-3.5026-29.073-8.1382-0.7225-4.0687-11.901 4.3193-11.865 10.539 0.046 17.584 8.2341 15.842 18.412-0.1166 0.6808-0.1862 1.2378-0.1549 1.2378 0.1055 0 3.3191-5.0433 4.9029-7.6942 6.5227-10.918 19.218-12.744 28.067-4.038l1.7434 1.7154 1.1449-0.8851c6.6913-5.1733 14.604-5.4552 20.233-0.7208 8.9682 7.5427 9.6784 16.883 1.8838 24.77l-2.1596 2.1852 0.925 1.2332c5.2687 7.0233 5.2353 15.371-0.087 21.824-2.4667 2.9905-4.6651 4.3706-10.409 6.535-1.9195 0.7233-4.1473 1.6085-4.9508 1.9674l-1.4607 0.6524 2.1741 0.1642c8.7202 0.6585 12.974 4.7868 14.362 13.94 1.1598 7.6459-3.8682 13.806-9.5814 11.74zm-126.54-10.211c-6.6199-1.7346-11.002-6.7741-11.854-13.633-0.3042-2.4479-0.088-2.2419-1.9009-1.8147-14.222 3.3525-25.62-14.925-15.764-25.28l0.7335-0.7707-0.9001-1.0254c-11.449-13.042 2.3923-34.072 18.91-28.732l1.4223 0.4597 1.4041-1.2759c9.5835-8.7093 26.011-1.644 26.041 11.2 0 1.198 0.082 1.5074 0.416 1.6203 16.735 5.66 12.655 30.585-5.0096 30.603-4.2235 0-11.362-2.6631-9.312-3.4793 1.6106-0.6413 4.2434-1.9093 4.2434-2.0437 0-0.084 0.6346-0.5997 1.4101-1.1466 9.1177-6.4299 8.5093-22.117-1.0398-26.808-17.261-8.4793-34.681 9.101-29.21 29.478 4.5358 16.893 32.734 25.865 46.52 14.801 35.129-28.191 9.3443-80.694-36.541-74.405-26.482 3.6295-47.016 34.468-40.707 61.137 0.82181 3.4737-1.8779 3.7082-7.6862 0.6676-13.231-6.9265-8.3873-29.357 6.3543-29.425 0.74696 0 0.74326-0.01-1.1865-1.9484-12.326-12.383 2.2226-33.431 17.61-25.478 0.8521 0.4404 0.8618 0.4273 1.1052-1.4957 1.7271-13.647 18.924-18.898 27.657-8.4452l0.9072 1.0858 1.3537-1.2911c8.4851-8.0934 22.361-4.8936 25.945 5.9829 0.3196 0.9701 0.6076 1.8058 0.64 1.8572 0.032 0.051 0.673-0.1824 1.4237-0.5193 14.306-6.42 28.457 10.222 19.617 23.071-1.1388 1.655-0.7442 2.9079 1.1547 3.6672 14.097 5.6361 12.678 26.545-2.0297 29.913-1.5109 0.346-1.5398 0.5751-0.2745 2.1759 11.063 13.996-7.4605 33.234-21.604 22.438-1.3108-1.0005-1.1243-1.0653-1.9884 0.6902-3.1919 6.4835-10.879 9.9997-17.862 8.17zm61.709-8.6996c0-1.4767 9.2399-17.665 14.544-25.481l2.3198-3.4184 14.376-3.7964c7.907-2.088 14.409-3.7705 14.449-3.7389 0.4267 0.3393-12.079 24.198-12.904 24.619-7.2165 3.6816-32.785 12.896-32.785 11.816zm-172.41-2.1395c-2.1915-2.6045-0.61246-8.9595 3.1647-12.737 6.1635-6.1635 16.604-5.9841 29.879 0.5136 3.934 1.9256 3.9394 1.9374 0.72495 1.5844-11.194-1.2293-23.231 2.5462-28.438 8.9204-1.9288 2.3613-4.1798 3.0868-5.3314 1.7183zm43.819-14.409c-16.565-11.726-25.02-30.403-15.786-34.873 5.247-2.5401 7.9994 1.3435 8.3602 11.796 0.36187 10.485 1.8354 14.616 8.0596 22.592 1.4609 1.8722 1.3964 1.9215-0.63337 0.4846zm-58.827-3.8116c-1.5079-0.7534-1.8738-4.1683-0.70853-6.6135 3.6208-7.5979 15.228-8.0216 29.169-1.0647 2.0455 1.0206 3.4539 1.7953 3.1298 1.7213-12.545-2.8635-20.309-1.6895-26.62 4.0248-2.3695 2.1456-3.592 2.6207-4.9701 1.9321zm-81.819-1.3531c-2.5689-0.3985-4.7515-1.4903-6.7695-3.3864l-1.244-1.169-1.3492 0.6398c-10.468 4.9645-21.924-5.3038-17.827-15.98 0.0761-0.1977-0.37348-0.4818-1.2923-0.8167-11.482-4.1864-10.982-20.64 0.74115-24.402 0.36708-0.1178 0.31844-0.2699-0.4109-1.2852-7.0454-9.8065 2.576-23.64 13.904-19.991 0.64828 0.2088 1.2317 0.3809 1.2966 0.3824 0.0651 0 0.0811-1.0116 0.036-2.2514-0.39729-10.896 12.688-17.373 20.898-10.345 0.55732 0.4771 1.0457 0.8282 1.0853 0.7804 0.04-0.048 0.42982-0.8221 0.86705-1.7207 4.5543-9.3586 18.485-9.2249 22.97 0.2204l0.89497 1.8849 1.1638-1.1148c6.5452-6.2695 17.858-3.6582 20.868 4.8167 0.47416 1.3352 0.42142 1.3231 1.8666 0.4259 10.07-6.2526 23.023 4.1556 18.877 15.168l-0.60805 1.6148 0.62767-0.1381c11.823-2.6018 20.921 11.513 13.187 20.459l-0.78999 0.914-0.76688-1.4388c-16.027-30.069-62.059-45.926-91.864-31.645-35.01 16.775-24.667 61.862 12.338 53.786 20.251-4.4198 26.86-29.52 10.883-41.333-2.6095-1.9294 5.6634-4.6182 10.362-3.3676 11.953 3.1808 13.029 20.226 1.5431 24.437-0.77799 0.2853-1.4502 0.5455-1.4938 0.5782-0.044 0.033 0.34616 0.5979 0.86635 1.2559 8.3875 10.611-2.9729 24.982-15.58 19.709-0.35687-0.1492-0.41251-0.031-0.41251 0.8759 0 7.4122-7.3915 13.595-14.867 12.435zm111.64-16.306c-6.4885-4.6279-16.461-7.3316-24.202-6.5619-6.5445 0.6507-7.3587 0.5791-8.8338-0.7759-2.6116-2.399-0.24579-6.9298 4.3635-8.357 7.6499-2.3684 21.403 5.1526 30.179 16.504 0.43703 0.5652 0.37078 0.5296-1.5068-0.8096zm-3.6664-12.864c-15.573-19.425-15.977-42.851-0.86685-50.238 13.074-6.3906 26.821 3.5724 23.626 17.122-2.014 8.5423-13.806 9.7431-18.328 1.8663-1.9024-3.3138-5.9533-2.4639-8.5037 1.7843-3.5392 5.8953-2.3958 15.505 3.1555 26.518 1.2581 2.496 2.2663 4.5381 2.2402 4.5381-0.026 0-0.62137-0.716-1.323-1.5912zm-24.115-5.4407c-0.48996-0.5415-0.49677-1.0788-0.02-1.5559 1.0066-1.0067 2.6637 0.2181 1.8908 1.3976-0.45904 0.7007-1.3147 0.773-1.8711 0.1583zm-5.8122-4.5196c-1.3557-1.3556 0.46485-3.5259 1.9668-2.3445 1.1967 0.9413 0.62057 2.8159-0.86555 2.8159-0.34636 0-0.84193-0.2121-1.1012-0.4714zm-5.8096-4.2326c-1.3011-0.548-1.6624-2.3398-0.68481-3.3947 1.7862-1.9274 4.8706 0.8093 3.135 2.7816-0.58774 0.6679-1.6746 0.9399-2.4501 0.6131zm277.13-1.1306c2.2755-5.751 3.6351-9.0373 3.7742-9.1234 0.3534-0.2183 10.222-2.5005 10.333-2.3896 0.1504 0.1506-3.8925 9.3644-4.2607 9.7102-0.247 0.2319-9.5142 2.9225-10.066 2.9225-0.1227 0-0.024-0.5039 0.22-1.1197zm-285.45-3.5545c-2.651-1.4217-1.9047-5.2446 1.0962-5.6157 1.6395-0.2028 3.3684 1.3277 3.3684 2.9818 0 1.4566-1.6081 3.0647-3.0647 3.0647-0.32825 0-0.95822-0.1938-1.4-0.4308zm-7.2955-4.5207c-3.9645-0.9358-3.17-7.0698 0.91579-7.0698 3.117 0 4.7471 3.7876 2.5884 6.0147-0.65509 0.6758-2.068 1.367-2.5884 1.2663-0.0651-0.013-0.47696-0.1076-0.91579-0.2112zm-10.994-3.8639c-1.0002-0.4358-2.1829-1.864-2.3702-2.8622-1.0082-5.3742 6.7723-7.2358 8.1798-1.9572 0.88516 3.3195-2.6059 6.2154-5.8097 4.8194zm-13.04-3.8214c-5.2023-2.5925-3.455-10.702 2.3059-10.702 2.5678 0 4.3662 1.0653 5.3443 3.1659 2.2943 4.9273-2.8051 9.9508-7.6502 7.5363z"/>
<path d="m1156.8 483.18c-4.0006 0.0207-8.0299-0.82235-12-0.01v436.34c-237.28 0.0241-474.56-0.0583-711.84 0.0586 0.0188 4.0201-0.82054 7.9622-0.008 11.941h723.84v-448.33z"/>
</g>
</svg>
