<?xml version="1.0" encoding="utf-8"?>

<!DOCTYPE svg PUBLIC "-//W3C//DTD SVG 1.1//EN" "http://www.w3.org/Graphics/SVG/1.1/DTD/svg11.dtd">
<svg version="1.1" id="Layer_1" xmlns="http://www.w3.org/2000/svg" xmlns:xlink="http://www.w3.org/1999/xlink" x="0px" y="0px"
	 viewBox="0 0 1644.099 1644.099" enable-background="new 0 0 1644.099 1644.099" xml:space="preserve">
<g>
	<path d="M1004.764,59.284c0,0,38.849-38.421,91.979-8.948c8.982,6.737,34.168,26.386,29.158,60.597c0,0-9.544,10.632-18.505-5.635
		c0,0-2.817-12.912,10.112-12.912c-19.088-21.86-67.298-20.19-62.859,29.158c3.947-12.316,40.403-34.189,54.982,12.933
		c1.112,7.277,2.737,36.316-22.509,53.123l22.175,0.561c0,0,22.754-16.688,31.165-52c7.284-1.123,19.263-8.912,14.596-26.912
		c-3.684-14.203,38.561-49.789,53.845-28.596c-10.407-14.432-40.379-35.333-68.421,8.4c3.93-20.21-52.625-105.487-147.414-46.596
		C993.069,42.456,995.269,55.929,1004.764,59.284z"/>
	<path d="M59.284,639.335c0,0-38.421-38.849-8.948-91.979c6.737-8.982,26.386-34.168,60.597-29.158c0,0,10.632,9.544-5.635,18.505
		c0,0-12.912,2.817-12.912-10.112c-21.86,19.088-20.19,67.298,29.158,62.859c-12.316-3.947-34.189-40.403,12.933-54.982
		c7.277-1.112,36.316-2.737,53.123,22.509l0.561-22.175c0,0-16.688-22.754-52-31.165c-1.123-7.284-8.912-19.263-26.912-14.596
		c-14.203,3.684-49.789-38.561-28.596-53.845c-14.432,10.407-35.333,40.379,8.4,68.421c-20.21-3.93-105.487,52.624-46.596,147.414
		C42.456,651.03,55.929,648.83,59.284,639.335z"/>
	<path d="M639.335,1584.815c0,0-38.849,38.421-91.979,8.948c-8.982-6.737-34.168-26.386-29.158-60.597
		c0,0,9.544-10.632,18.505,5.635c0,0,2.817,12.912-10.112,12.912c19.088,21.86,67.298,20.19,62.859-29.158
		c-3.947,12.316-40.403,34.189-54.982-12.933c-1.112-7.277-2.737-36.316,22.509-53.123l-22.175-0.561c0,0-22.754,16.688-31.165,52
		c-7.284,1.123-19.263,8.912-14.596,26.912c3.684,14.203-38.561,49.789-53.845,28.596c10.407,14.432,40.379,35.333,68.421-8.4
		c-3.93,20.21,52.624,105.487,147.414,46.596C651.03,1601.643,648.83,1588.17,639.335,1584.815z"/>
	<path d="M1584.815,1004.764c0,0,38.421,38.849,8.948,91.979c-6.737,8.982-26.386,34.168-60.597,29.158
		c0,0-10.632-9.544,5.635-18.505c0,0,12.912-2.817,12.912,10.112c21.86-19.088,20.19-67.298-29.158-62.859
		c12.316,3.947,34.189,40.403-12.933,54.982c-7.277,1.112-36.316,2.737-53.123-22.509l-0.561,22.175c0,0,16.688,22.754,52,31.165
		c1.123,7.284,8.912,19.263,26.912,14.596c14.203-3.684,49.789,38.561,28.596,53.845c14.432-10.407,35.333-40.379-8.4-68.421
		c20.21,3.93,105.487-52.625,46.596-147.414C1601.643,993.069,1588.17,995.269,1584.815,1004.764z"/>
	<path d="M1584.815,639.335c0,0,38.421-38.849,8.948-91.979c-6.737-8.982-26.386-34.168-60.597-29.158
		c0,0-10.632,9.544,5.635,18.505c0,0,12.912,2.817,12.912-10.112c21.86,19.088,20.19,67.298-29.158,62.859
		c12.316-3.947,34.189-40.403-12.933-54.982c-7.277-1.112-36.316-2.737-53.123,22.509l-0.561-22.175c0,0,16.688-22.754,52-31.165
		c1.123-7.284,8.912-19.263,26.912-14.596c14.203,3.684,49.789-38.561,28.596-53.845c14.432,10.407,35.333,40.379-8.4,68.421
		c20.21-3.93,105.487,52.624,46.596,147.414C1601.643,651.03,1588.17,648.83,1584.815,639.335z"/>
	<path d="M639.335,59.284c0,0-38.849-38.421-91.979-8.948c-8.982,6.737-34.168,26.386-29.158,60.597c0,0,9.544,10.632,18.505-5.635
		c0,0,2.817-12.912-10.112-12.912c19.088-21.86,67.298-20.19,62.859,29.158c-3.947-12.316-40.403-34.189-54.982,12.933
		c-1.112,7.277-2.737,36.316,22.509,53.123l-22.175,0.561c0,0-22.754-16.688-31.165-52c-7.284-1.123-19.263-8.912-14.596-26.912
		c3.684-14.203-38.561-49.789-53.845-28.596c10.407-14.432,40.379-35.333,68.421,8.4c-3.93-20.21,52.624-105.487,147.414-46.596
		C651.03,42.456,648.83,55.929,639.335,59.284z"/>
	<path d="M59.284,1004.764c0,0-38.421,38.849-8.948,91.979c6.737,8.982,26.386,34.168,60.597,29.158c0,0,10.632-9.544-5.635-18.505
		c0,0-12.912-2.817-12.912,10.112c-21.86-19.088-20.19-67.298,29.158-62.859c-12.316,3.947-34.189,40.403,12.933,54.982
		c7.277,1.112,36.316,2.737,53.123-22.509l0.561,22.175c0,0-16.688,22.754-52,31.165c-1.123,7.284-8.912,19.263-26.912,14.596
		c-14.203-3.684-49.789,38.561-28.596,53.845c-14.432-10.407-35.333-40.379,8.4-68.421c-20.21,3.93-105.487-52.625-46.596-147.414
		C42.456,993.069,55.929,995.269,59.284,1004.764z"/>
	<path d="M1004.764,1584.815c0,0,38.849,38.421,91.979,8.948c8.982-6.737,34.168-26.386,29.158-60.597
		c0,0-9.544-10.632-18.505,5.635c0,0-2.817,12.912,10.112,12.912c-19.088,21.86-67.298,20.19-62.859-29.158
		c3.947,12.316,40.403,34.189,54.982-12.933c1.112-7.277,2.737-36.316-22.509-53.123l22.175-0.561c0,0,22.754,16.688,31.165,52
		c7.284,1.123,19.263,8.912,14.596,26.912c-3.684,14.203,38.561,49.789,53.845,28.596c-10.407,14.432-40.379,35.333-68.421-8.4
		c3.93,20.21-52.625,105.487-147.414,46.596C993.069,1601.643,995.269,1588.17,1004.764,1584.815z"/>
	<path d="M822.049,121.187c2.669,7.724,2.669,15.991,2.669,15.991c60.537,41.509,75.667,69.551,131.21,86.421
		c70,21.263,134.315-18.316,134.315-18.316l-29.842-2.888c-30.852,12.877-60.157-0.116-66.333-5.695
		c-28.596-28.666-39.06-20.428-45.438-11.824c0.562-7.839,24.14-39.804,1.14-71.207c-22.965-31.424-58.298,2.772-58.298,2.772
		c9.098-34.6-14.389-51.396-25.228-53.284c-28.71-4.207-40.032,9.727-44.195,24.611c-4.164-14.884-15.486-28.818-44.196-24.611
		c-10.839,1.888-34.326,18.684-25.228,53.284c0,0-35.333-34.196-58.298-2.772c-23,31.403,0.579,63.368,1.14,71.207
		c-6.379-8.604-16.842-16.842-45.438,11.824c-6.176,5.579-35.481,18.572-66.333,5.695l-29.842,2.888
		c0,0,64.316,39.579,134.315,18.316c55.544-16.87,70.673-44.912,131.21-86.421C819.38,137.178,819.38,128.911,822.049,121.187z
		 M1522.912,822.049c-7.724,2.669-15.991,2.669-15.991,2.669c-41.508,60.537-69.551,75.667-86.421,131.21
		c-21.263,70,18.316,134.315,18.316,134.315l2.888-29.842c-12.877-30.852,0.116-60.157,5.694-66.333
		c28.667-28.596,20.428-39.06,11.824-45.438c7.839,0.562,39.804,24.14,71.207,1.14c31.424-22.965-2.772-58.298-2.772-58.298
		c34.6,9.098,51.396-14.389,53.284-25.228c4.207-28.71-9.727-40.032-24.611-44.195c14.884-4.164,28.818-15.486,24.611-44.196
		c-1.888-10.839-18.684-34.326-53.284-25.228c0,0,34.196-35.333,2.772-58.298c-31.403-23-63.368,0.579-71.207,1.14
		c8.604-6.379,16.842-16.842-11.824-45.438c-5.579-6.176-18.572-35.481-5.694-66.333l-2.888-29.842
		c0,0-39.579,64.316-18.316,134.315c16.87,55.544,44.912,70.673,86.421,131.21C1506.921,819.38,1515.188,819.38,1522.912,822.049z
		 M822.049,1522.912c-2.669-7.724-2.669-15.991-2.669-15.991c-60.537-41.508-75.667-69.551-131.21-86.421
		c-70-21.263-134.315,18.316-134.315,18.316l29.842,2.888c30.852-12.877,60.157,0.116,66.333,5.694
		c28.596,28.667,39.06,20.428,45.438,11.824c-0.562,7.839-24.14,39.804-1.14,71.207c22.965,31.424,58.298-2.772,58.298-2.772
		c-9.098,34.6,14.389,51.396,25.228,53.284c28.71,4.207,40.032-9.727,44.196-24.611c4.164,14.884,15.486,28.818,44.195,24.611
		c10.839-1.888,34.326-18.684,25.228-53.284c0,0,35.333,34.196,58.298,2.772c23-31.403-0.579-63.368-1.14-71.207
		c6.379,8.604,16.842,16.842,45.438-11.824c6.176-5.579,35.481-18.572,66.333-5.694l29.842-2.888c0,0-64.316-39.579-134.315-18.316
		c-55.544,16.87-70.673,44.912-131.21,86.421C824.719,1506.921,824.719,1515.188,822.049,1522.912z M121.187,822.049
		c7.724-2.669,15.991-2.669,15.991-2.669c41.509-60.537,69.551-75.667,86.421-131.21c21.263-70-18.316-134.315-18.316-134.315
		l-2.888,29.842c12.877,30.852-0.116,60.157-5.695,66.333c-28.666,28.596-20.428,39.06-11.824,45.438
		c-7.839-0.562-39.804-24.14-71.207-1.14c-31.424,22.965,2.772,58.298,2.772,58.298c-34.6-9.098-51.396,14.389-53.284,25.228
		c-4.207,28.71,9.727,40.032,24.611,44.196c-14.884,4.164-28.818,15.486-24.611,44.195c1.888,10.839,18.684,34.326,53.284,25.228
		c0,0-34.196,35.333-2.772,58.298c31.403,23,63.368-0.579,71.207-1.14c-8.604,6.379-16.842,16.842,11.824,45.438
		c5.579,6.176,18.572,35.481,5.695,66.333l2.888,29.842c0,0,39.579-64.316,18.316-134.315
		c-16.87-55.544-44.912-70.673-86.421-131.21C137.178,824.719,128.911,824.719,121.187,822.049z M954.245,189.367
		c13.456-5.593,38.702,29.74,57.186,29.754c0,0-34.765,0.547-59.993-10.681C951.438,208.441,940.806,194.967,954.245,189.367z
		 M189.367,689.854c-5.593-13.456,29.74-38.702,29.754-57.186c0,0,0.547,34.765-10.681,59.993
		C208.441,692.661,194.967,703.293,189.367,689.854z M689.854,1454.731c-13.456,5.593-38.702-29.74-57.186-29.754
		c0,0,34.765-0.547,59.993,10.681C692.661,1435.658,703.293,1449.132,689.854,1454.731z M1454.731,954.245
		c5.593,13.456-29.74,38.702-29.754,57.186c0,0-0.547-34.765,10.681-59.993C1435.658,951.438,1449.132,940.806,1454.731,954.245z
		 M1435.658,692.661c-11.228-25.228-10.681-59.993-10.681-59.993c0.014,18.484,35.347,43.73,29.754,57.186
		C1449.132,703.293,1435.658,692.661,1435.658,692.661z M692.661,208.441c-25.228,11.228-59.993,10.681-59.993,10.681
		c18.484-0.014,43.73-35.347,57.186-29.754C703.293,194.967,692.661,208.441,692.661,208.441z M208.441,951.438
		c11.228,25.228,10.681,59.993,10.681,59.993c-0.014-18.484-35.347-43.73-29.754-57.186
		C194.967,940.806,208.441,951.438,208.441,951.438z M951.438,1435.658c25.228-11.228,59.993-10.681,59.993-10.681
		c-18.484,0.014-43.73,35.347-57.186,29.754C940.806,1449.132,951.438,1435.658,951.438,1435.658z M851.087,80.245
		c28.063-10.084,40.386,32.266,27.754,45.179c-2.526,2.224-16.842,14-26.649-4.512c-0.842-2.786-1.667-14.014,8.972-13.452
		c-1.937,1.417-9.077,3.228-4.481,12.33c4.06,8.126,23.393,2.337,15.719-12.316c-8.326-15.874-26.105-5.088-27.474,3.916
		c-1.702,22.983,16.614,30.26,28.481,27.463c10.442-2.467,13.565-11.182,30.923-15.66c42.656-6.737,47.141,30.28,37.035,47.67
		c-10.105,17.382,1.088,34.224,1.088,34.224c-12.035-6.751-84.947-53.312-99.502-79.979
		C840.701,120.069,823.035,90.336,851.087,80.245z M80.245,793.012c-10.084-28.063,32.266-40.386,45.179-27.754
		c2.224,2.526,14,16.842-4.512,26.649c-2.786,0.842-14.014,1.667-13.452-8.972c1.417,1.937,3.228,9.077,12.33,4.481
		c8.126-4.06,2.337-23.393-12.316-15.719c-15.874,8.326-5.088,26.105,3.916,27.474c22.983,1.702,30.26-16.614,27.463-28.481
		c-2.467-10.442-11.182-13.565-15.66-30.923c-6.737-42.656,30.28-47.141,47.67-37.035c17.382,10.105,34.224-1.088,34.224-1.088
		c-6.751,12.035-53.312,84.947-79.979,99.502C120.069,803.397,90.336,821.064,80.245,793.012z M793.012,1563.854
		c-28.063,10.084-40.386-32.266-27.754-45.179c2.526-2.224,16.842-14,26.649,4.512c0.842,2.786,1.667,14.014-8.972,13.453
		c1.937-1.417,9.077-3.228,4.481-12.33c-4.06-8.126-23.393-2.337-15.719,12.316c8.326,15.874,26.105,5.088,27.474-3.916
		c1.702-22.983-16.614-30.26-28.481-27.463c-10.442,2.467-13.565,11.182-30.923,15.66c-42.656,6.737-47.141-30.281-37.035-47.67
		c10.105-17.382-1.088-34.224-1.088-34.224c12.035,6.751,84.947,53.312,99.502,79.979
		C803.397,1524.03,821.064,1553.763,793.012,1563.854z M1563.854,851.087c10.084,28.063-32.266,40.386-45.179,27.754
		c-2.224-2.526-14-16.842,4.512-26.649c2.786-0.842,14.014-1.667,13.453,8.972c-1.417-1.937-3.228-9.077-12.33-4.481
		c-8.126,4.06-2.337,23.393,12.316,15.719c15.874-8.326,5.088-26.105-3.916-27.474c-22.983-1.702-30.26,16.614-27.463,28.481
		c2.467,10.442,11.182,13.565,15.66,30.923c6.737,42.656-30.281,47.141-47.67,37.035c-17.382-10.105-34.224,1.088-34.224,1.088
		c6.751-12.035,53.312-84.947,79.979-99.502C1524.03,840.701,1553.763,823.035,1563.854,851.087z M1518.991,801.145
		c-26.667-14.554-73.228-87.467-79.979-99.502c0,0,16.842,11.193,34.224,1.088c17.39-10.105,54.407-5.621,47.67,37.035
		c-4.477,17.358-13.193,20.481-15.66,30.923c-2.796,11.866,4.481,30.182,27.463,28.481c9.003-1.369,19.789-19.147,3.916-27.474
		c-14.652-7.674-20.442,11.66-12.316,15.719c9.102,4.596,10.912-2.544,12.33-4.481c0.562,10.639-10.666,9.814-13.453,8.972
		c-18.512-9.807-6.737-24.123-4.512-26.649c12.912-12.631,55.263-0.309,45.179,27.754
		C1553.763,821.064,1524.03,803.397,1518.991,801.145z M801.145,125.108c-14.554,26.667-87.467,73.228-99.502,79.979
		c0,0,11.193-16.842,1.088-34.224c-10.105-17.39-5.621-54.407,37.035-47.67c17.358,4.477,20.481,13.193,30.923,15.66
		c11.866,2.796,30.182-4.481,28.481-27.463c-1.369-9.003-19.147-19.789-27.474-3.916c-7.674,14.652,11.66,20.442,15.719,12.316
		c4.596-9.102-2.544-10.912-4.481-12.33c10.639-0.562,9.814,10.666,8.972,13.452c-9.807,18.512-24.123,6.737-26.649,4.512
		c-12.631-12.912-0.309-55.263,27.754-45.179C821.064,90.336,803.397,120.069,801.145,125.108z M125.108,842.954
		c26.667,14.554,73.228,87.467,79.979,99.502c0,0-16.842-11.193-34.224-1.088c-17.39,10.105-54.407,5.621-47.67-37.035
		c4.477-17.358,13.193-20.481,15.66-30.923c2.796-11.866-4.481-30.182-27.463-28.481c-9.003,1.369-19.789,19.147-3.916,27.474
		c14.652,7.674,20.442-11.66,12.316-15.719c-9.102-4.596-10.912,2.544-12.33,4.481c-0.562-10.639,10.666-9.814,13.452-8.972
		c18.512,9.807,6.737,24.123,4.512,26.649c-12.912,12.631-55.263,0.309-45.179-27.754
		C90.336,823.035,120.069,840.701,125.108,842.954z M842.954,1518.991c14.554-26.667,87.467-73.228,99.502-79.979
		c0,0-11.193,16.842-1.088,34.224c10.105,17.39,5.621,54.407-37.035,47.67c-17.358-4.477-20.481-13.193-30.923-15.66
		c-11.866-2.796-30.182,4.481-28.481,27.463c1.369,9.003,19.147,19.789,27.474,3.916c7.674-14.652-11.66-20.442-15.719-12.316
		c-4.596,9.102,2.544,10.912,4.481,12.33c-10.639,0.562-9.814-10.666-8.972-13.453c9.807-18.512,24.123-6.737,26.649-4.512
		c12.631,12.912,0.309,55.263-27.754,45.179C823.035,1553.763,840.701,1524.03,842.954,1518.991z"/>
	<path d="M822.049,246.713l355.044-0.047l223.989-3.649l-3.649,223.989l-0.047,355.044l0.047,355.044l3.649,223.989l-223.989-3.649
		l-355.044-0.047l-355.044,0.047l-223.989,3.649l3.649-223.989l0.047-355.044l-0.047-355.044l-3.649-223.989l223.989,3.649
		L822.049,246.713z M1407.504,236.594l-227.721-3.71c-2.816,0.36-5.648,0.35-8.343-0.045c-35.146-0.005-226.739-0.03-349.391-0.046
		c-122.652,0.016-314.246,0.041-349.391,0.046c-2.695,0.395-5.527,0.404-8.343,0.045l-227.721,3.71l-3.71,227.721
		c0.36,2.816,0.35,5.648-0.045,8.343c-0.005,35.146-0.03,226.739-0.046,349.391c0.016,122.652,0.041,314.246,0.046,349.391
		c0.395,2.695,0.404,5.527,0.045,8.343l3.71,227.721l227.721,3.709c2.816-0.36,5.648-0.35,8.343,0.045
		c35.146,0.005,226.739,0.03,349.391,0.045c122.652-0.016,314.246-0.041,349.391-0.045c2.695-0.395,5.527-0.405,8.343-0.045
		l227.721-3.709l3.709-227.721c-0.36-2.816-0.35-5.648,0.045-8.343c0.005-35.146,0.03-226.739,0.045-349.391
		c-0.016-122.652-0.041-314.246-0.045-349.391c-0.395-2.695-0.405-5.527-0.045-8.343L1407.504,236.594z"/>
	<path d="M1443.149,200.95c-36.222,2.042-43.777-5.856-63.229-19.842c-21.87-15.705-42.596-54.968-93.08-63.403
		c-52.807-8.807-69.912,28.4-74.368,42.175c4.165-23.53-24.421-45.087-49.018-26.526c-34.895,26.351-7.298,51.053-7.298,51.053
		c-42.087,5.579-92.543,14.54-146.375-18.582c-8.968-7.838-42.063-31.417-25.765-75.137c0,0-10.667-3.93-15.719-13.474
		c0,0-47.14,117.193,123.35,126.21c16.246,2.26,51.316-5.544,78.789-4.947c10.782,0,24.888,3.305,24.053,13.544
		c-1.544,18.989-29.877,16.505-32.449,7.79c-1.375-4.667,0-6.421,0-6.421c-1.789,10.007,16.046,10,16.432,0.772
		c0.579-13.789-23.614-15.915-23.614,0.772c0,10.86,7.507,16.578,16.583,17.908c2.695,0.395,5.527,0.404,8.343,0.045
		c11.684-1.493,23.075-9.312,23.075-22.068c0-17.456-20.912-20.797-31.176-20.797c45.983-17.916,147.105-29.67,196.455,0.632
		c25.343,15.563,48.918,18.399,68.666,16.643c-1.756,19.749,1.08,43.323,16.643,68.666c30.302,49.35,18.547,150.473,0.632,196.455
		c0-10.263-3.34-31.176-20.797-31.176c-12.756,0-20.575,11.391-22.068,23.075c-0.36,2.816-0.35,5.648,0.045,8.343
		c1.33,9.075,7.048,16.582,17.908,16.582c16.688,0,14.561-24.193,0.772-23.614c-9.228,0.386-9.235,18.221,0.772,16.432
		c0,0-1.754,1.375-6.421,0c-8.716-2.572-11.2-30.905,7.79-32.449c10.239-0.835,13.544,13.27,13.544,24.053
		c0.596,27.474-7.207,62.544-4.948,78.789c9.018,170.49,126.21,123.35,126.21,123.35c-9.544-5.052-13.474-15.719-13.474-15.719
		c-43.719,16.298-67.298-16.796-75.137-25.765c-33.123-53.831-24.161-104.287-18.583-146.375c0,0,24.702,27.596,51.053-7.298
		c18.561-24.596-2.997-53.182-26.526-49.018c13.776-4.456,50.982-21.561,42.175-74.368c-8.435-50.484-47.698-71.21-63.403-93.08
		C1449.004,244.727,1441.107,237.172,1443.149,200.95z M1443.149,1443.149c-2.042-36.222,5.856-43.777,19.842-63.229
		c15.705-21.87,54.968-42.596,63.403-93.08c8.807-52.807-28.4-69.912-42.175-74.368c23.53,4.165,45.088-24.421,26.526-49.018
		c-26.351-34.895-51.053-7.298-51.053-7.298c-5.579-42.087-14.54-92.543,18.583-146.375c7.839-8.968,31.417-42.063,75.137-25.765
		c0,0,3.93-10.667,13.474-15.719c0,0-117.193-47.14-126.21,123.35c-2.26,16.246,5.544,51.316,4.948,78.789
		c0,10.782-3.305,24.888-13.544,24.053c-18.99-1.544-16.505-29.877-7.79-32.449c4.667-1.375,6.421,0,6.421,0
		c-10.007-1.789-10,16.046-0.772,16.432c13.789,0.579,15.915-23.614-0.772-23.614c-10.86,0-16.578,7.507-17.908,16.583
		c-0.395,2.695-0.405,5.527-0.045,8.343c1.493,11.684,9.312,23.075,22.068,23.075c17.456,0,20.797-20.912,20.797-31.176
		c17.916,45.983,29.67,147.105-0.632,196.455c-15.563,25.343-18.399,48.918-16.643,68.666c-19.749-1.756-43.323,1.08-68.666,16.643
		c-49.351,30.302-150.473,18.547-196.455,0.632c10.263,0,31.176-3.34,31.176-20.797c0-12.756-11.391-20.575-23.075-22.068
		c-2.816-0.36-5.648-0.35-8.343,0.045c-9.075,1.33-16.583,7.048-16.583,17.908c0,16.688,24.193,14.561,23.614,0.772
		c-0.386-9.228-18.221-9.235-16.432,0.772c0,0-1.375-1.754,0-6.421c2.572-8.716,30.905-11.2,32.449,7.79
		c0.835,10.239-13.27,13.544-24.053,13.544c-27.474,0.596-62.544-7.207-78.789-4.948c-170.49,9.018-123.35,126.21-123.35,126.21
		c5.052-9.544,15.719-13.474,15.719-13.474c-16.298-43.719,16.796-67.298,25.765-75.137
		c53.831-33.123,104.287-24.161,146.375-18.583c0,0-27.596,24.702,7.298,51.053c24.596,18.561,53.182-2.997,49.018-26.526
		c4.456,13.776,21.561,50.982,74.368,42.175c50.484-8.435,71.21-47.698,93.08-63.403
		C1399.371,1449.004,1406.927,1441.107,1443.149,1443.149z M200.95,1443.149c36.222-2.042,43.778,5.856,63.228,19.842
		c21.87,15.705,42.596,54.968,93.08,63.403c52.807,8.807,69.912-28.4,74.368-42.175c-4.165,23.53,24.421,45.088,49.018,26.526
		c34.895-26.351,7.298-51.053,7.298-51.053c42.087-5.579,92.543-14.54,146.375,18.583c8.968,7.839,42.063,31.417,25.765,75.137
		c0,0,10.667,3.93,15.719,13.474c0,0,47.14-117.193-123.35-126.21c-16.246-2.26-51.316,5.544-78.789,4.948
		c-10.783,0-24.888-3.305-24.053-13.544c1.544-18.99,29.877-16.505,32.449-7.79c1.375,4.667,0,6.421,0,6.421
		c1.789-10.007-16.046-10-16.432-0.772c-0.579,13.789,23.614,15.915,23.614-0.772c0-10.86-7.507-16.578-16.582-17.908
		c-2.695-0.395-5.527-0.405-8.343-0.045c-11.684,1.493-23.075,9.312-23.075,22.068c0,17.456,20.912,20.797,31.176,20.797
		c-45.982,17.916-147.105,29.67-196.455-0.632c-25.343-15.563-48.918-18.399-68.666-16.643c1.756-19.749-1.08-43.323-16.643-68.666
		c-30.302-49.351-18.547-150.473-0.632-196.455c0,10.263,3.34,31.176,20.797,31.176c12.756,0,20.575-11.391,22.068-23.075
		c0.36-2.816,0.35-5.648-0.045-8.343c-1.331-9.075-7.048-16.583-17.908-16.583c-16.688,0-14.561,24.193-0.772,23.614
		c9.228-0.386,9.235-18.221-0.772-16.432c0,0,1.754-1.375,6.421,0c8.716,2.572,11.2,30.905-7.79,32.449
		c-10.239,0.835-13.544-13.27-13.544-24.053c-0.596-27.474,7.207-62.544,4.947-78.789c-9.018-170.49-126.21-123.35-126.21-123.35
		c9.544,5.052,13.474,15.719,13.474,15.719c43.719-16.298,67.298,16.796,75.137,25.765c33.123,53.831,24.161,104.287,18.582,146.375
		c0,0-24.702-27.596-51.053,7.298c-18.561,24.596,2.997,53.182,26.526,49.018c-13.775,4.456-50.982,21.561-42.175,74.368
		c8.435,50.484,47.698,71.21,63.403,93.08C195.094,1399.371,202.992,1406.927,200.95,1443.149z M200.95,200.95
		c2.042,36.222-5.856,43.778-19.842,63.228c-15.705,21.87-54.968,42.596-63.403,93.08c-8.807,52.807,28.4,69.912,42.175,74.368
		c-23.53-4.165-45.087,24.421-26.526,49.018c26.351,34.895,51.053,7.298,51.053,7.298c5.579,42.087,14.54,92.543-18.582,146.375
		c-7.838,8.968-31.417,42.063-75.137,25.765c0,0-3.93,10.667-13.474,15.719c0,0,117.193,47.14,126.21-123.35
		c2.26-16.246-5.544-51.316-4.947-78.789c0-10.783,3.305-24.888,13.544-24.053c18.989,1.544,16.505,29.877,7.79,32.449
		c-4.667,1.375-6.421,0-6.421,0c10.007,1.789,10-16.046,0.772-16.432c-13.789-0.579-15.915,23.614,0.772,23.614
		c10.86,0,16.578-7.507,17.908-16.582c0.395-2.695,0.404-5.527,0.045-8.343c-1.493-11.684-9.312-23.075-22.068-23.075
		c-17.456,0-20.797,20.912-20.797,31.176c-17.916-45.982-29.67-147.105,0.632-196.455c15.563-25.343,18.399-48.918,16.643-68.666
		c19.749,1.756,43.323-1.08,68.666-16.643c49.35-30.302,150.473-18.547,196.455-0.632c-10.263,0-31.176,3.34-31.176,20.797
		c0,12.756,11.391,20.575,23.075,22.068c2.816,0.36,5.648,0.35,8.343-0.045c9.075-1.331,16.582-7.048,16.582-17.908
		c0-16.688-24.193-14.561-23.614-0.772c0.386,9.228,18.221,9.235,16.432-0.772c0,0,1.375,1.754,0,6.421
		c-2.572,8.716-30.905,11.2-32.449-7.79c-0.835-10.239,13.27-13.544,24.053-13.544c27.474-0.596,62.544,7.207,78.789,4.947
		c170.49-9.018,123.35-126.21,123.35-126.21c-5.052,9.544-15.719,13.474-15.719,13.474c16.298,43.719-16.796,67.298-25.765,75.137
		c-53.831,33.123-104.287,24.161-146.375,18.582c0,0,27.596-24.702-7.298-51.053c-24.596-18.561-53.182,2.997-49.018,26.526
		c-4.456-13.775-21.561-50.982-74.368-42.175c-50.484,8.435-71.21,47.698-93.08,63.403
		C244.727,195.094,237.172,202.992,200.95,200.95z M1301.419,136.771c16.263,5.052,33.649,11.228,57.193,39.298
		c0,0-40.93-34.807-134.596-12.4C1224.016,163.669,1231.332,121.599,1301.419,136.771z M136.771,342.68
		c5.052-16.263,11.228-33.649,39.298-57.193c0,0-34.807,40.93-12.4,134.596C163.669,420.083,121.599,412.767,136.771,342.68z
		 M342.68,1507.328c-16.263-5.052-33.649-11.228-57.193-39.298c0,0,40.93,34.807,134.596,12.4
		C420.083,1480.43,412.767,1522.5,342.68,1507.328z M1507.328,1301.419c-5.052,16.263-11.228,33.649-39.298,57.193
		c0,0,34.807-40.93,12.4-134.596C1480.43,1224.016,1522.5,1231.332,1507.328,1301.419z M1480.43,420.083
		c22.407-93.667-12.4-134.596-12.4-134.596c28.07,23.544,34.246,40.93,39.298,57.193
		C1522.5,412.767,1480.43,420.083,1480.43,420.083z M420.083,163.669c-93.667-22.407-134.596,12.4-134.596,12.4
		c23.544-28.07,40.93-34.246,57.193-39.298C412.767,121.599,420.083,163.669,420.083,163.669z M163.669,1224.016
		c-22.407,93.667,12.4,134.596,12.4,134.596c-28.07-23.544-34.246-40.93-39.298-57.193
		C121.599,1231.332,163.669,1224.016,163.669,1224.016z M1224.016,1480.43c93.667,22.407,134.596-12.4,134.596-12.4
		c-23.544,28.07-40.93,34.246-57.193,39.298C1231.332,1522.5,1224.016,1480.43,1224.016,1480.43z M1165.683,175.423
		c-3.362-5.6-10.632-22.421,10.684-30.842c21.288-8.407,29.624,18.084,20.158,24.702c-9.474,6.621-17.947,7.839-17.947,7.839
		S1169.051,181.038,1165.683,175.423z M175.423,478.416c-5.6,3.362-22.421,10.632-30.842-10.684
		c-8.407-21.288,18.084-29.624,24.702-20.158c6.621,9.474,7.839,17.947,7.839,17.947S181.038,475.048,175.423,478.416z
		 M478.416,1468.675c3.362,5.6,10.632,22.421-10.684,30.842c-21.288,8.407-29.624-18.084-20.158-24.702
		c9.474-6.621,17.947-7.839,17.947-7.839S475.048,1463.061,478.416,1468.675z M1468.675,1165.683
		c5.6-3.362,22.421-10.632,30.842,10.684c8.407,21.288-18.084,29.624-24.702,20.158c-6.621-9.474-7.839-17.947-7.839-17.947
		S1463.061,1169.051,1468.675,1165.683z M1466.977,465.521c0,0,1.218-8.474,7.839-17.947c6.618-9.466,33.109-1.13,24.702,20.158
		c-8.421,21.316-25.242,14.046-30.842,10.684C1463.061,475.048,1466.977,465.521,1466.977,465.521z M465.521,177.122
		c0,0-8.474-1.218-17.947-7.839c-9.466-6.618-1.13-33.109,20.158-24.702c21.316,8.421,14.046,25.242,10.684,30.842
		C475.048,181.038,465.521,177.122,465.521,177.122z M177.122,1178.577c0,0-1.218,8.474-7.839,17.947
		c-6.618,9.466-33.109,1.13-24.702-20.158c8.421-21.316,25.242-14.046,30.842-10.684
		C181.038,1169.051,177.122,1178.577,177.122,1178.577z M1178.577,1466.977c0,0,8.474,1.218,17.947,7.839
		c9.466,6.618,1.13,33.109-20.158,24.702c-21.316-8.421-14.046-25.242-10.684-30.842
		C1169.051,1463.061,1178.577,1466.977,1178.577,1466.977z"/>
	<path d="M1013.83,82.21c15.074-14.526,7.509-34.235,7.509-34.235s-2.19,5.07-4.856,7.954c-11.046,11.923-18.625,3.368-21.649-0.667
		c-4.642-6.182-5.081-13.252,1.323-17.663c6.403-4.414,14.796-5.088,14.796-5.088s-24.224-9.783-39.533,8.175
		c-12.807,15.017-4.088,32.575,3.976,40.638C983.455,89.389,1001.683,93.922,1013.83,82.21z"/>
	<path d="M82.21,630.268c-14.526-15.074-34.235-7.509-34.235-7.509s5.07,2.19,7.954,4.856c11.923,11.046,3.368,18.625-0.667,21.649
		c-6.182,4.642-13.252,5.081-17.663-1.323c-4.414-6.403-5.088-14.796-5.088-14.796s-9.783,24.224,8.175,39.533
		c15.017,12.807,32.575,4.088,40.638-3.976C89.389,660.644,93.922,642.415,82.21,630.268z"/>
	<path d="M630.268,1561.889c-15.074,14.526-7.509,34.235-7.509,34.235s2.19-5.07,4.856-7.954
		c11.046-11.923,18.625-3.368,21.649,0.667c4.642,6.182,5.081,13.252-1.323,17.663c-6.403,4.414-14.796,5.088-14.796,5.088
		s24.224,9.783,39.533-8.175c12.807-15.017,4.088-32.575-3.976-40.638C660.644,1554.71,642.415,1550.177,630.268,1561.889z"/>
	<path d="M1561.889,1013.83c14.526,15.074,34.235,7.509,34.235,7.509s-5.07-2.19-7.954-4.856
		c-11.923-11.046-3.368-18.625,0.667-21.649c6.182-4.642,13.252-5.081,17.663,1.323c4.414,6.403,5.088,14.796,5.088,14.796
		s9.783-24.224-8.175-39.533c-15.017-12.807-32.575-4.088-40.638,3.976C1554.71,983.455,1550.177,1001.683,1561.889,1013.83z"/>
	<path d="M1561.889,630.268c14.526-15.074,34.235-7.509,34.235-7.509s-5.07,2.19-7.954,4.856
		c-11.923,11.046-3.368,18.625,0.667,21.649c6.182,4.642,13.252,5.081,17.663-1.323c4.414-6.403,5.088-14.796,5.088-14.796
		s9.783,24.224-8.175,39.533c-15.017,12.807-32.575,4.088-40.638-3.976C1554.71,660.644,1550.177,642.415,1561.889,630.268z"/>
	<path d="M630.268,82.21c-15.074-14.526-7.509-34.235-7.509-34.235s2.19,5.07,4.856,7.954c11.046,11.923,18.625,3.368,21.649-0.667
		c4.642-6.182,5.081-13.252-1.323-17.663c-6.403-4.414-14.796-5.088-14.796-5.088s24.224-9.783,39.533,8.175
		c12.807,15.017,4.088,32.575-3.976,40.638C660.644,89.389,642.415,93.922,630.268,82.21z"/>
	<path d="M82.21,1013.83c-14.526,15.074-34.235,7.509-34.235,7.509s5.07-2.19,7.954-4.856c11.923-11.046,3.368-18.625-0.667-21.649
		c-6.182-4.642-13.252-5.081-17.663,1.323c-4.414,6.403-5.088,14.796-5.088,14.796s-9.783-24.224,8.175-39.533
		c15.017-12.807,32.575-4.088,40.638,3.976C89.389,983.455,93.922,1001.683,82.21,1013.83z"/>
	<path d="M1013.83,1561.889c15.074,14.526,7.509,34.235,7.509,34.235s-2.19-5.07-4.856-7.954
		c-11.046-11.923-18.625-3.368-21.649,0.667c-4.642,6.182-5.081,13.252,1.323,17.663c6.403,4.414,14.796,5.088,14.796,5.088
		s-24.224,9.783-39.533-8.175c-12.807-15.017-4.088-32.575,3.976-40.638C983.455,1554.71,1001.683,1550.177,1013.83,1561.889z"/>
</g>
</svg>
