<?xml version="1.0" encoding="utf-8"?>

<!DOCTYPE svg PUBLIC "-//W3C//DTD SVG 1.1//EN" "http://www.w3.org/Graphics/SVG/1.1/DTD/svg11.dtd">
<svg version="1.1" id="Layer_1" xmlns="http://www.w3.org/2000/svg" xmlns:xlink="http://www.w3.org/1999/xlink" x="0px" y="0px"
	 viewBox="0 0 2635.64 1505.959" style="enable-background:new 0 0 2635.64 1505.959;" xml:space="preserve">
<g>
	<path d="M915.376,87.524c29.614-42.795,107.396-46.982,153.052-22.139c32.353,17.326,42.205,42.499,50.095,64.882
		c48.424-32.591,124.284-3.824,109.226,54.613c-27.699,110.933-242.855,184.861-361.851,227.453
		c32.472-16.47,140.978-57.407,227.887-123.112c31.802-28.915,73.291-79.269,66.299-121.478c-1.234-8.135-5.268-15.387-9.402-22.355
		c11.603,4.851,21.255,15.12,22.955,27.907c2.884,19.638-7.102,37.776-16.07,54.429c55.337-82.463-8.114-110.369-36.275-81.086
		c7.307,110.736-107.326,188.51-206.732,238.356c-336.063,166.805-684.503,116.94-710.883-18.521
		c-11.881-68.646,70.836-118.035,110.376-81.919c24.503,23.267-4.988,62.733-27.756,50.829
		c-7.152-3.901-13.503-12.153-11.103-20.688c1.234-1.817,2.684-3.451,4.101-5.118c-68.25-13.112-92.546,229.845,332.878,148.952
		c17.938-3.851,36.375-6.485,53.346-13.803c19.629-8.168,52.695-30.682,43.777-49.978c-3.217-8.202-12.203-12.22-20.638-11.653
		c2.384,3.451,5.735,6.835,5.451,11.369c0.6,7.885-5.935,15.02-13.57,16.104c-27.008,3.788-36.935-30.99-10.403-46.394
		c34.822-20.829,87.188,19.418,51.562,54.729c-7.302,8.052-16.837,13.453-26.073,18.921
		c171.024-53.205,130.198-174.928,85.253-142.967c-6.918,4.634-10.886,12.52-11.986,20.638
		c-32.001-8.546-38.69-32.364-24.706-52.612c28.691-42.564,96.114-29.217,111.309,18.204c11.223,35.191-12.503,76.472-22.405,85.787
		c0.917-0.167,2.767-0.517,3.684-0.7c72.987-100.159-38.21-141.059,1.584-201.447c-9.752,31.836,5.458,35.331,29.957,52.112
		c27.964,17.769,39.579,45.674,27.907,82.353c21.202-28.551,67.438-47.841,90.571-26.49c53.465-47.925,18.291-76.966,1.417-62.565
		c32.782,14.049-5.779,37.076-19.671,15.104c-12.358-16.613,6.164-42.853,38.276-34.875c33.067,8.791,23.317,59.723-15.854,89.788
		c0,1.134,0.017,3.417,0.017,4.551c8.535-5.61,81.839-74.537,75.801-153.653c-15.561-90.463-129.608-73.524-108.075-14.787
		c13.062-23.183,40.09-16.884,52.012-5.185c11.389,11.369,10.904,49.132-41.493,51.479
		C917.651,165.592,895.539,123.143,915.376,87.524 M818.67,388.062c4.584-6.718,10.086-12.853,15.954-18.471
		c-0.717-0.784-1.434-1.567-2.151-2.334c-9.627,18.612-42.619,37.64-61.431,46.861c102.188-39.008,188.272-93.593,190.695-107.992
		c3.434-9.252-2.551-21.005-12.703-22.122C910.112,281.576,881.895,345.1,818.67,388.062z"/>
	<path d="M1727.366,109.363c6.48,54.239-67.187,64.821-95.689,42.943c-12.251-9.211-22.022-36.789,3.768-48.195
		c9.669-4.234,21.505-4.985,31.007,0.1c5.068,2.601,7.968,7.652,10.786,12.386c16.152-53.41-62.578-67.451-94.289-20.305
		c-41.831,63.097,21.652,157.157,62.198,188.427c-0.017-1.05-0.033-3.134-0.05-4.184c-63.922-52.17-32.114-110.022,13.587-87.02
		c11.669,5.735,16.754,22.855,7.585,32.924c-6.685,9.386-23.189,11.036-29.94,1.05c-3.834-8.319,3.818-16.154,11.803-17.271
		c-17.368-14.723-52.69,16.545,1.217,62.498c17.22-17.157,60.401-10.328,89.954,25.639c-11.188-34.906-1.17-63.574,31.641-83.703
		c25.539-16.695,33.952-19.743,27.006-48.728c41.111,61.938-86.608,110.67,16.187,217.101c3.317,0.533,1.667,2.951,0.083,3.367
		c-11.936-9.736-24.089-19.238-34.908-30.224c-23.875-19.307-42.095-48.28-61.131-60.414c-47.365-31.218-50.999,9.325-38.892,18.904
		c77.572,59.953,175.144,96.113,183.293,97.956c-40.87-19.077-72.879-48.315-83.053-92.872
		c-18.087-81.503,86.96-110.457,115.61-50.879c8.71,17.932,2.647,36.814-28.157,46.861c-2.358-27.283-43.095-39.638-49.228-4.451
		c-12.775,65.122,59.379,105.352,121.979,126.596c-9.019-5.918-18.704-11.153-25.906-19.388
		c-19.147-19.074-14.801-48.215,18.971-58.18c27.299-8.874,57.415,15.327,46.094,38.809c-12.081,23.176-52.81,8.195-31.307-15.87
		c-42.866,1.256-22.702,51.843,43.66,68.499c113.177,25.831,327.684,48.267,388.891-48.195
		c25.758-40.104,18.826-97.973-23.539-94.039c1.967,2.517,5.051,4.818,4.718,8.435c-0.3,11.786-12.853,21.955-24.489,19.004
		c-27.714-5.775-33.836-46.003-5.568-58.83c66.222-30.533,163.896,78.057,46.544,158.154
		c-235.909,159.168-881.507-53.596-863.152-290.051c-37.687-32.677-90.801,10.332-33.975,84.72
		c-32.546-51.035-18.507-76.316,4.518-85.337c-7.085,10.986-11.536,23.906-10.019,37.142
		c11.722,121.341,246.561,204.091,294.586,229.437c-98.362-35.019-232.99-86.788-299.804-141.533
		c-134-110.281-26.695-187.828,47.595-140.35C1544.784,20.176,1717.754,32.859,1727.366,109.363z"/>
	<path d="M228.581,236.759c-4.418-8.035,2.034-17.921,10.352-19.755c25.903-6.358,33.95,19.94,20.121,35.925
		c78.134-20.461,127.312,52.751,90.088,108.259c-31.747,45.844-92.833,19.521-78.969-12.603
		c35.81,28.494,74.467-8.408,69.233-42.127c-7.149-57.767-137.049-54.613-139.916,35.158c-3.862-12.534,1.195-55.391,38.509-79.619
		c28.723-17.98,18.817-37.696,4.601-34.325C258.549,242.705,233.586,248.62,228.581,236.759z"/>
	<path d="M2407.792,226.407c3.017,6.935-2.034,16.671-10.002,16.554c-4.234,0.617-9.869-1.65-9.652-6.618
		c-0.783-3.818,2.834-6.068,4.951-8.619c-11.443-1.983-18.975,7.94-9.135,22.422c6.268,8.335,16.237,12.486,23.822,19.388
		c20.922,17.904,31.824,46.394,29.257,73.717c-5.367-58.421-56.013-83.554-99.24-73.884c-73.158,15.665-37.18,100.032,9.852,88.671
		c6.968-1.384,12.786-5.651,18.604-9.486c5.42,20.146-8.097,33.078-28.34,36.775c-63.081,10.149-94.284-99.916-19.405-129.68
		c18.304-7.185,38.876-7.652,57.847-2.867C2352.852,218.675,2398.71,204.514,2407.792,226.407z"/>
	<path d="M1249.287,221.923c10.186-2.301,21.305,0.784,28.907,7.902c-34.117-5.466-30.916,7.746-55.53,46.144
		c53.68-34.438,133.982-35.526,190.145-0.117c-21.867-32.77-21.458-54.784-56.73-45.244
		c44.659-41.101,80.558,55.121,226.736,110.376c-1.002-0.214-112.961-33.796-146.651-46.828
		c-60.097-29.876-153.458-35.735-227.287-4.434c-24.945,12.391-153.803,51.11-154.803,51.345
		C1183.879,286.163,1211.681,230.165,1249.287,221.923z"/>
	<path d="M1237.618,315.545c395.57-30.874,501.348,160.125,825.043,183.976c105.115,5.935,254.72-1.7,340.797-60.931
		c63.557-43.302,54.162-90.108,49.695-117.511c83.719,23.666,131.59,152.88,144.634,224.669
		c-148.362,92.174-155.842,315.771,0.033,414.464c-10.687,57.659-42.117,139.69-80.819,182.043
		c-17.371,19.138-39.976,32.774-63.798,42.376c2.367-16.42,5.784-33.341,1.4-49.762c-19.126-84.948-168.246-119.569-220.318-123.329
		c-5.785,1.067-10.836,4.701-16.521,6.268c309.497,42.315,219.786,227.931,128.463,214.35
		c-46.248-6.598-39.499-56.941-10.035-63.148c11.853-3.301,24.906,6.835,25.123,18.988c0.167,3.484-2.867,5.618-4.835,8.052
		c78.458,10.673,80.195-242.811-364.435-142.3c-43.213,10.926-80.844,42.978-62.398,62.431c4.251,5.268,11.169,6.735,17.621,6.702
		c-22.574-32.031,30.6-37.391,33.608-9.869c2.184,12.42-6.068,24.289-16.971,29.524c-37.27,20.103-105.349-30.915-21.339-75.701
		c-157.197,52.469-132.735,140.33-110.276,148.135c16.054,5.268,33.658-8.352,34.508-24.823
		c32.755,9.822,38.143,32.139,25.856,51.345c-24.051,38.154-82.759,34.542-106.142-3.801
		c-23.095-36.483,1.123-91.233,35.158-119.178c11.836-10.236,25.606-17.821,39.359-25.106
		c-63.915,23.789-125.463,55.13-180.076,96.223c-13.767,8.834-11.641,43.65,25.689,27.323c31.99-14.906,60.97-67.173,111.809-99.757
		c-76.19,86.86-38.753,111.601-17.104,172.09c6.168,16.304,6.251,35.725-3.334,50.779c1.817-8.485,4.484-17.704,0.3-25.956
		c-11.846-23.132-82.076-34.273-59.047-106.408c-25.746,26.946-58.556,46.249-90.121,25.523
		c-52.086,43.388-19.834,78.357-1.084,62.365c-31.638-11.518,1.227-36.231,17.604-17.104c9.613,9.864,8.034,33.083-19.638,37.675
		c-47.903,6.71-50.009-52.684-1.017-90.671c0.033-1.05,0.117-3.134,0.167-4.184c-34.326,20.735-116.6,138.197-52.279,199.83
		c38.606,36.01,102.442,10.328,83.953-31.557c-2.834,6.118-7.452,11.669-14.087,13.753c-19.075,6.223-53.124-4.573-40.693-37.409
		c15.455-39.084,125.003-30.418,102.924,42.477c-15.649,59.43-180.03,77.515-207.449-32.891
		c-17.521,11.603-39.393,15.637-60.047,12.603c-59.691-6.797-83.598-77.678,19.755-158.704
		c80.827-62.794,283.935-133.16,290.668-134.532c-142.286,62.916-248.773,114.185-285.4,199.964
		c-15.886,37.935-2.658,56.07,2.817,65.599c-12.053-4.935-22.289-15.737-23.506-29.107c-2.417-18.037,6.602-34.525,14.237-50.112
		c-51.6,75.086,7.837,108.572,38.259,78.268c0.467-5.418-0.4-10.836-0.117-16.254c2.39-174.599,343.358-295.993,528.49-321.692
		c119.879-16.479,95.647,4.217,127.063-16.254c-428.142-18.131-530.057,250.921-997.984,177.158
		c-251.957-42.84-383.182-191.226-705.199-177.141c6.051,4.518,12.686,10.119,20.738,9.486
		c209.491-3.259,651.483,138.724,633.765,344.647c33.367,30.809,87.87-4.441,39.759-76.351c6.852,15.254,15.37,31.224,12.903,48.578
		c-1.35,13.07-11.186,23.939-23.122,28.724c8.785-12.503,12.253-28.29,9.335-43.31c-21.947-119.529-238.493-194.507-291.168-222.269
		c39.993,13.653,79.252,29.457,118.478,45.177c62.518,25.892,195.034,77.997,233.571,161.521
		c36.589,78.689-54.073,106.766-102.491,73.884c-11.325,45.209-48.825,77.044-105.942,80.052
		c-53.703,3.224-95.684-21.402-101.891-49.011c-19.397-71.446,87.207-78.732,102.991-41.126
		c14.079,32.611-22.07,45.497-42.177,37.309c-5.935-2.317-9.652-7.702-12.586-13.07c-10.206,24.862,7.647,45.162,33.375,48.195
		c44.558,5.954,77.84-37.743,74.918-76.251c-1.858-53.706-37.166-106.325-75.984-140.65c-0.55,2.584-0.25,5.301,2.251,6.768
		c48.683,41.375,40.31,91.595,0.917,88.954c-31.701-1.988-34.444-28.028-23.639-38.542c6.501-7.235,18.538-8.685,26.323-2.717
		c4.951,3.751,4.384,11.769,0.067,15.787c-2.334,2.684-5.968,3.367-9.119,4.551c15.373,12.79,54.17-10.882-1.017-62.681
		c-21.269,19.844-65.785,5.436-90.721-26.34c25,72.416-48.606,84.7-58.98,108.442c-3.634,8.435-1.267,17.754,1.3,26.14
		c-22.7-34.773,5.766-68.526,17.471-101.074c18.488-48.154-3.001-82.483-36.725-121.145c-0.867,0.767-1.717,1.567-2.551,2.401
		c14.754,11.469,25.506,27.54,33.024,44.527c31.521,71.575-27.71,111.253-69.75,100.974c-43.663-10.407-63.548-62.919-10.953-76.518
		c1.117,15.904,17.504,29.007,33.291,25.056c21.833-5.538,22.742-51.537,1.8-80.669c-23.133-32.512-72.208-54.685-109.842-67.682
		c85.841,49.291,8.57,98.658-26.873,72.667c-22.067-14.536-14.155-47.499,13.186-44.444c7.802,0.8,14.27,8.252,13.57,16.154
		c0.2,4.501-3.101,7.902-5.318,11.486c45.91-4.339,16.816-56.887-51.662-70.667c-447.255-97.51-429.459,158.727-358.001,143.767
		c-10.236-8.819-0.167-24.206,10.586-26.906c29.015-6.683,47.537,38.924,19.388,55.98c-15.32,9.519-35.042,9.569-51.762,3.917
		c-83.532-29.643-99.275-178.226,161.271-211.2c-7.335-1.617-13.72-7.818-21.555-5.935
		c-80.596,10.855-204.548,47.527-216.551,127.913c-2.817,14.82-0.217,29.807,2,44.51c-79.129-18.791-128.56-143.951-144.651-223.652
		c154.05-102.596,151.828-315.323-0.017-415.464c18.859-83.793,63.007-198.201,144.601-224.119
		C178.999,348,156.512,428.25,318.252,477.166c295.927,88.919,580.612-71.414,711.317-117.111
		C1096.685,336.549,1166.668,320.996,1237.618,315.545 M1142.546,363.622c-135.248,28.429-239.005,94.699-383.823,135.598
		c-252.856,71.492-564.283,33.952-613.36-111.209c-28.801,39.161-52.479,95.251-64.465,143.867
		c146.764,109.396,148.294,330.425,0.017,442.27c13.036,51.095,33.975,100.624,64.498,143.8
		c28.922-87.828,148.979-124.764,240.356-138.766c4.101-12.453,15.32-20.405,26.406-26.273
		c123.744-63.175,403.812,41.624,404.812,41.493c3.251-1.684,7.052-0.7,10.569-0.75c94.433,2.918,142.959,38.553,192.478,25.506
		c-37.916,57.396-180.832-26.457-200.647-24.072c0.017,0.35,0.067,1.034,0.083,1.384c45.91,17.25,190.771,77.525,225.603,68.883
		c10.281-3.215,14.633-8.588,6.635-15.804c0.433,5.535-4.901,11.119-10.436,8.185c-7.585-2.734-4.951-13.686,1.634-15.954
		c15.278-8.925,40.073,16.756,6.151,27.723c24.819,4.609,77.249,9.741,96.439-6.818c23.052-25.711-13.226-40.601-24.972-24.922
		c-3.301,4.434,1.317,8.585,3.801,12.02c-5.335-1.434-11.203-2.667-14.97-7.035c-12.87-13.275,1.28-42.988,28.157-43.06
		c50.754-1.663,84.293,81.916-6.668,102.641c-23.389,4.901-47.928,5.235-71.267,0.05c-1.1,0.767-2.167,1.567-3.201,2.401
		c23.972,7.118,49.595,9.419,74.201,4.201c105.537-21.141,72.682-136.129-3.317-122.112c-14.287,2.234-29.507,9.519-35.408,23.522
		c-3.934,8.935-0.917,18.638,2.567,27.156c-43.528-24.123-16.249-81.924,49.895-72.817c96.913,17.976,104.692,145.631-5.118,156.587
		c-28.84,2.684-58.43-2.984-84.07-16.537c0.284-1.234,0.584-2.451,0.884-3.651c-74.626-8.702-283.494-140.521-500.234-144.484
		c-27.923-0.15-57.33,1.134-82.586,14.353c385.407-7.959,488.407,175.037,799.137,187.644
		c392.568,19.085,469.085-195.73,890.759-187.661c-65.578-33.658-210.875-1.38-283.033,19.755
		c-108.325,32.448-231.435,94.497-299.053,111.043c0.117,0.634,0.317,1.9,0.417,2.534c-60.155,32.083-144.304,20.701-161.688-36.308
		c-11.447-34.814,5.358-72.616,41.926-92.455c72.434-39.13,135.372,27.571,79.835,62.131c2.751-7.952,6.068-16.57,3.234-25.006
		c-4.284-14.087-18.671-22.205-32.291-25.106c-47.422-11.51-97.4,38.276-65.065,87.187c24.455,36.817,86.019,44.24,129.997,30.274
		c-0.033-0.4-0.083-1.234-0.1-1.634c-1.98-0.752-82.646,14.577-117.561-24.206c-29.393-31.118-0.853-79.978,37.892-79.519
		c30.478-0.454,51.102,42.1,13.337,50.045c2.651-3.084,7.818-6.901,4.868-11.419c-7.452-11.086-27.323-8.269-32.374,3.684
		c-7.244,39.029,64.891,34.07,103.991,27.59c-34.674-10.262-10.415-36.164,5.101-28.023c5.735,2.117,9.669,10.986,3.767,15.12
		c-4.984,4.651-12.936-0.333-12.036-6.802c-9.396,3.908-4.194,19.995,25.289,15.987c65.215-12.753,126.83-38.409,188.477-62.431
		c229.425-89.254,432.576-89.201,451.856-24.222c89.729,13.012,214.004,52.376,240.323,138.666
		c20.034-25.875,48.686-80.078,64.849-143.417c-4.801-4.234-9.952-8.035-14.72-12.286
		c-124.957-106.973-136.495-312.266,14.67-430.584c-15.152-60.469-42.077-113.567-64.815-143.734
		c-7.735,25.456-24.906,47.028-44.877,64.165c-82.337,67.546-214.155,81.89-320.892,83.47
		c-304.837-6.83-430.67-130.032-631.915-171.99C1392.725,341.16,1251.322,339.405,1142.546,363.622 M773.809,1093.26
		c14.12,7.235,28.607,14.603,40.176,25.689c0.967-1.05,1.934-2.117,2.917-3.151c82.748,66.247,78.012,83.955,109.876,99.923
		c36.203,17.925,41.258-11.335,31.391-23.322C917.564,1159.946,847.723,1119.658,773.809,1093.26z"/>
	<path d="M1818.087,388.378C1818.471,388.778,1818.471,388.778,1818.087,388.378z"/>
	<path d="M278.076,393.98c8.519-4.034,22.139,1.65,20.488,12.353c-1.85,12.153-20.988,14.02-26.69,3.767
		C268.307,404.199,271.925,396.347,278.076,393.98z"/>
	<path d="M2346.478,393.379c8.369-2.784,20.088,2.967,18.754,12.853c-1.934,12.653-22.072,14.187-27.056,2.967
		C2335.108,402.682,2339.86,395.046,2346.478,393.379z"/>
	<path d="M300.898,415.018c7.402-3.201,18.471,2.367,16.804,11.336c-2.201,10.803-19.805,11.636-23.672,1.567
		C291.963,422.636,295.664,416.568,300.898,415.018z"/>
	<path d="M2324.989,415.301c7.369-3.784,18.521,1.917,17.238,10.836c-1.934,10.736-18.954,11.936-23.222,2.334
		C2316.404,423.42,2319.838,417.035,2324.989,415.301z"/>
	<path d="M326.221,428.804c6.802-2.501,16.421,3.034,14.503,10.969c-2.384,9.319-17.687,10.086-21.238,1.234
		C317.269,435.873,321.07,430.071,326.221,428.804z"/>
	<path d="M2301.867,428.921c6.702-2.617,16.787,2.417,15.037,10.519c-1.934,9.819-18.438,10.552-21.572,1.117
		C2293.265,435.689,2297.166,430.288,2301.867,428.921z"/>
	<path d="M348.026,440.491c6.135-4.384,17.337-0.917,17.137,7.468c-0.7,8.969-14.12,11.336-19.138,4.601
		C343.008,448.926,344.142,443.041,348.026,440.491z"/>
	<path d="M2275.111,440.274c6.101-4.001,16.92-0.6,16.72,7.635c-0.8,8.919-13.72,11.286-18.988,4.918
		C2269.56,449.093,2270.727,442.641,2275.111,440.274z"/>
	<path d="M376.249,447.159c5.635-2.734,14.287,0.467,14.387,7.402c-0.25,8.852-13.42,11.253-18.021,4.418
		C369.648,454.977,371.615,448.826,376.249,447.159z"/>
	<path d="M2250.105,447.375c5.535-3.184,14.72,0.183,14.37,7.302c-0.033,7.635-10.753,10.786-15.971,5.951
		C2243.82,457.344,2245.004,449.593,2250.105,447.375z"/>
	<path d="M403.006,452.093c5.034-1.85,12.67,1.434,11.869,7.585c-0.283,8.352-13.62,9.952-16.937,2.751
		C395.604,458.261,398.771,453.277,403.006,452.093z"/>
	<path d="M2226.616,452.06c5.135-1.817,12.303,1.517,12.02,7.552c-0.517,7.919-12.27,9.869-16.537,3.901
		C2218.665,459.462,2221.765,453.11,2226.616,452.06z"/>
	<path d="M427.828,455.327c5.135-2.501,12.786,1.55,11.353,7.818c-1.817,6.602-12.22,7.185-15.254,1.284
		C421.76,461.062,424.194,456.378,427.828,455.327z"/>
	<path d="M2200.077,455.794c5.018-3.267,13.987,0.45,12.636,7.135c-1.517,6.568-11.936,7.518-15.254,1.9
		C2195.242,461.812,2196.859,457.344,2200.077,455.794z"/>
	<path d="M449.55,458.578c3.718-2.684,10.202-0.433,10.369,4.484c0.167,5.668-8.152,7.668-11.536,3.751
		C445.732,464.663,446.599,460.045,449.55,458.578z"/>
	<path d="M2178.355,458.761c3.667-2.934,10.403-0.583,10.719,4.334c-0.184,4.518-5.818,7.035-9.635,5.118
		C2175.321,467.113,2174.704,460.812,2178.355,458.761z"/>
	<path d="M471.038,459.962c3.334-2,9.119,0.233,8.435,4.618c0.133,4.818-7.152,6.251-9.852,2.901
		C467.571,465.43,468.138,460.979,471.038,459.962z"/>
	<path d="M489.709,460.412c4.968-1.734,7.819,6.001,2.567,7.402C486.909,470.264,483.641,461.162,489.709,460.412z"/>
	<path d="M2139.746,464.63c1.351-2.717,3.751-5.135,7.052-4.051c4.034,0.8,3.101,7.335-0.817,7.352
		C2143.23,468.614,2141.513,466.097,2139.746,464.63z"/>
	<path d="M2158.3,460.328c3.201-2.484,9.335-0.5,9.052,3.984c0.116,4.151-5.235,6.118-8.469,4.301
		C2155.683,467.197,2154.983,461.996,2158.3,460.328z"/>
	<path d="M1818.037,993.603c-54.161,16.04-168.467,77.138-202.347,25.473C1666.035,1032.874,1722.685,992.994,1818.037,993.603z"/>
	<path d="M471.272,1037.047c3.418-1.084,8.152,0.017,8.319,4.334c0.067,5.151-7.435,6.635-10.252,2.917
		C467.487,1041.948,468.454,1038.164,471.272,1037.047z"/>
	<path d="M2158.45,1037.414c3.051-1.45,7.519-0.934,8.852,2.667c1.284,4.801-5.185,8.019-8.852,5.385
		C2155.366,1043.915,2155.316,1038.864,2158.45,1037.414z"/>
	<path d="M403.022,1039.131c4.951-1.917,12.286,1.367,11.869,7.302c0.25,7.818-11.286,10.419-15.82,4.834
		C395.27,1047.316,397.688,1040.131,403.022,1039.131z"/>
	<path d="M426.311,1038.747c4.801-3.384,13.386-0.65,13.02,5.951c-0.617,6.635-10.186,8.552-14.287,3.918
		C421.91,1045.966,422.944,1040.664,426.311,1038.747z"/>
	<path d="M449.35,1038.147c3.417-1.95,9.419-1.25,10.419,3.234c1.484,6.368-8.319,9.102-11.719,4.401
		C445.799,1043.665,446.749,1039.498,449.35,1038.147z"/>
	<path d="M487.725,1038.647c2.551-1.45,7.052-0.8,7.418,2.684c0.6,2.834-2.867,4.701-5.335,4.184
		C486.492,1045.366,485.058,1040.581,487.725,1038.647z"/>
	<path d="M2141.963,1038.864c3.101-2.234,8.985-0.433,7.318,4.168C2147.198,1048.816,2136.545,1043.715,2141.963,1038.864z"/>
	<path d="M2178.222,1038.264c3.751-2.701,10.853-0.634,10.802,4.601c-0.467,4.284-5.785,6.468-9.452,4.701
		C2175.521,1046.583,2174.537,1040.298,2178.222,1038.264z"/>
	<path d="M2199.86,1038.547c4.818-3.234,13.57-0.2,12.936,6.335c-0.75,6.868-11.319,8.419-14.97,3.084
		C2195.226,1045.099,2196.543,1040.248,2199.86,1038.547z"/>
	<path d="M2226.75,1039.014c5.168-1.684,11.736,1.584,12.003,7.435c-0.583,8.068-12.403,10.619-16.67,4.034
		C2218.665,1046.349,2221.882,1040.031,2226.75,1039.014z"/>
	<path d="M376.233,1043.949c5.585-2.834,14.387,0.517,14.353,7.452c-0.367,8.069-11.836,10.919-16.987,5.418
		C369.398,1053.167,371.048,1045.716,376.233,1043.949z"/>
	<path d="M2251.422,1043.549c5.451-2.151,13.536,1.417,13.053,8.002c-0.117,8.535-13.12,10.836-17.504,4.218
		C2243.654,1051.467,2246.354,1044.932,2251.422,1043.549z"/>
	<path d="M349.543,1050.467c6.401-3.401,16.437,1.034,15.587,8.985c-1.65,8.152-13.47,10.602-18.621,4.334
		C342.375,1059.819,344.542,1052.551,349.543,1050.467z"/>
	<path d="M2276.495,1050.383c6.402-3.451,16.387,1.55,15.237,9.402c-1.984,7.702-13.07,10.052-18.321,4.301
		C2268.876,1060.152,2271.027,1052.284,2276.495,1050.383z"/>
	<path d="M326.271,1058.869c6.868-2.467,16.154,3.134,14.503,10.969c-2.151,9.569-17.454,10.402-21.222,1.6
		C317.152,1066.204,321.136,1060.319,326.271,1058.869z"/>
	<path d="M2301.767,1059.052c6.835-2.667,16.837,2.417,15.22,10.636c-2.084,9.436-17.221,10.669-21.338,2.1
		C2293.015,1066.771,2296.666,1060.603,2301.767,1059.052z"/>
	<path d="M299.515,1072.139c7.002-4.168,18.671,0.3,18.254,9.252c0,10.503-15.587,13.487-21.688,6.235
		C291.329,1083.091,293.497,1074.406,299.515,1072.139z"/>
	<path d="M2324.656,1071.872c7.452-4.184,19.138,2,17.487,11.036c-2.117,10.536-18.654,11.653-23.022,2.301
		C2316.371,1080.19,2319.621,1073.856,2324.656,1071.872z"/>
	<path d="M277.76,1090.293c8.752-4.684,22.822,1.75,20.755,12.77c-2.301,11.786-20.655,13.57-26.523,3.651
		C268.391,1100.912,271.625,1092.81,277.76,1090.293z"/>
	<path d="M2344.744,1090.176c8.752-4.501,22.172,2.134,20.471,12.853c-2.551,11.619-20.238,13.67-26.289,3.934
		C2335.058,1101.062,2338.376,1092.66,2344.744,1090.176z"/>
	<path d="M305.616,1120.1c49.633-0.648,76.5,75.08,35.975,114.01c-21.138,21.138-54.129,26.106-82.303,18.904
		c5.318,6.468,7.902,15.154,5.635,23.405c-3.684,15.87-29.79,18.154-36.659,3.634c-7.365-15.75,16.344-23.306,19.438-12.086
		c1.3,4.351-2.567,7.368-5.068,10.252c14.835,0,17.155-9.661,9.752-21.705c-6.668-9.135-17.354-13.87-25.556-21.355
		c-26.83-23.903-30.687-59.955-27.423-70.583c2.148,49.613,54.278,88.105,108.775,69.116
		c64.853-23.575,17.847-105.559-27.056-83.353c-4.151,1.5-7.218,5.568-11.703,5.985
		C263.438,1133.865,284.164,1119.534,305.616,1120.1z"/>
	<path d="M2331.141,1120.1c21.677-0.219,42.15,15.217,35.092,37.309c-39.988-30.126-77.72,12.98-68.983,46.111
		c9.402,36.742,73.75,48.124,110.926,16.637c26.634-22.614,26.906-47.829,28.99-57.497c2.534,30.007-10.836,61.581-36.009,78.685
		c-7.268,5.418-16.104,10.036-19.771,18.854c-2.201,4.668-3.434,11.203,1.034,15.004c2.517,3.184,6.835,2.767,10.486,3.084
		c-2.684-3.151-6.285-6.702-4.385-11.236c4.034-6.835,15.337-5.201,18.604,1.634c4.584,8.002-1.7,18.221-10.102,20.188
		c-27.167,5.083-33.193-19.25-20.605-35.925c-29.007,7.635-63.415,1.85-84.219-20.988
		C2255.401,1193.257,2280.48,1119.068,2331.141,1120.1z"/>
	<path d="M1052.358,1163.593c47.728,16.937,97.073,29.04,144.434,47.061c69.52,33.205,169.221,34.38,241.607,0.167
		c47.928-17.954,97.639-30.557,145.951-47.344c-135.153,57.995-159.653,110.542-196.363,120.028
		c-10.853,2.784-23.022-0.117-31.007-8.068c33.393,10.515,37.789-18.573,53.913-42.46c-56.447,32.091-129.747,31.907-186.26,0.067
		c16.994,23.46,18.43,52.583,54.613,42.177c-46.373,38.75-71.396-46.25-216.934-106.975
		C1058.909,1166.827,1055.558,1165.36,1052.358,1163.593z"/>
</g>
</svg>
